/* XPM */
static char *result[] = {
/* columns rows colors chars-per-pixel */
"64 64 225 2 ",
"   c #3E1712",
".  c #3C261E",
"X  c #3E2B25",
"o  c #38282B",
"O  c #362C35",
"+  c #59190A",
"@  c #491C17",
"#  c #491A0F",
"$  c #4A200A",
"%  c #4C2313",
"&  c #45241C",
"*  c #4C231C",
"=  c #4D2A1D",
"-  c #492916",
";  c #562716",
":  c #58321B",
">  c #632C16",
",  c #653918",
"<  c #7E3B1C",
"1  c #753917",
"2  c #7C390E",
"3  c #431B24",
"4  c #4C2524",
"5  c #442C2A",
"6  c #482827",
"7  c #542523",
"8  c #542B26",
"9  c #46302B",
"0  c #5A332D",
"q  c #593728",
"w  c #4C2B32",
"e  c #472D3A",
"r  c #552932",
"t  c #4B3533",
"y  c #5A3A36",
"u  c #6A3D2E",
"i  c #673927",
"p  c #7B3C23",
"a  c #763A28",
"s  c #643E35",
"d  c #6C3C35",
"f  c #6D3D3A",
"g  c #663938",
"h  c #723D3B",
"j  c #783D36",
"k  c #77431A",
"l  c #6D4217",
"z  c #57433A",
"x  c #79462B",
"c  c #654235",
"v  c #6C4233",
"b  c #64433C",
"n  c #6C443B",
"m  c #67493E",
"M  c #73423B",
"N  c #7B413B",
"B  c #7A4A3E",
"V  c #754536",
"C  c #71492E",
"Z  c #733D43",
"A  c #653C44",
"S  c #5A4546",
"D  c #514B52",
"F  c #6D4543",
"G  c #684746",
"H  c #7B4A43",
"J  c #754845",
"K  c #6E524B",
"L  c #775749",
"P  c #655A57",
"I  c #775652",
"U  c #6C4950",
"Y  c #6B6053",
"T  c #766358",
"R  c #585F6F",
"E  c #625F66",
"W  c #5E626D",
"Q  c #5C6375",
"!  c #5C6479",
"~  c #69656C",
"^  c #7E7377",
"/  c #6B686F",
"(  c #803D1C",
")  c #843C29",
"_  c #85451B",
"`  c #8A401B",
"'  c #874728",
"]  c #96582B",
"[  c #894836",
"{  c #845439",
"}  c #985939",
"|  c #934E2D",
" . c #A65D2B",
".. c #A65B38",
"X. c #B75333",
"o. c #9A6336",
"O. c #A36437",
"+. c #BA733D",
"@. c #C25836",
"#. c #D2582F",
"$. c #CF6F3E",
"%. c #844948",
"&. c #845344",
"*. c #875949",
"=. c #965C47",
"-. c #8A5B54",
";. c #975B50",
":. c #A15D46",
">. c #9C6249",
",. c #976655",
"<. c #947056",
"1. c #A5644A",
"2. c #A66948",
"3. c #B46D49",
"4. c #AC7347",
"5. c #B77446",
"6. c #A46A58",
"7. c #AD735C",
"8. c #AA7757",
"9. c #B77656",
"0. c #B06F51",
"q. c #8A6762",
"w. c #9F6C63",
"e. c #9B7669",
"r. c #936E72",
"t. c #887976",
"y. c #967B78",
"u. c #AA6D62",
"i. c #A37363",
"p. c #AB7666",
"a. c #B47866",
"s. c #A67B74",
"d. c #B16E65",
"f. c #C5764C",
"g. c #CB764E",
"h. c #C17D68",
"j. c #B2835C",
"k. c #99857D",
"l. c #938572",
"z. c #AA846B",
"x. c #B5836A",
"c. c #AB8877",
"v. c #B58771",
"b. c #B39376",
"n. c #C88858",
"m. c #DC8A5D",
"M. c #DB9257",
"N. c #D78E4A",
"B. c #E18B5D",
"V. c #F7865A",
"C. c #E2945B",
"Z. c #C58767",
"A. c #DB9562",
"S. c #D8966A",
"D. c #C38D78",
"F. c #CD9374",
"G. c #D89977",
"H. c #D48660",
"J. c #E58A62",
"K. c #E79A68",
"L. c #E49B74",
"P. c #F3916C",
"I. c #DCA67A",
"U. c #E3AA7D",
"Y. c #E4A678",
"T. c #F0A871",
"R. c #6D7A87",
"E. c #877E81",
"W. c #758598",
"Q. c #948584",
"!. c #868A99",
"~. c #92919F",
"^. c #A68782",
"/. c #AA988D",
"(. c #B99985",
"). c #B38F81",
"_. c #8797A6",
"`. c #949BA7",
"'. c #9AA6B4",
"]. c #BDB7BA",
"[. c #ACB0AE",
"{. c #C89B89",
"}. c #D69987",
"|. c #D99E96",
" X c #DBA385",
".X c #D9A78A",
"XX c #CCA799",
"oX c #D8A995",
"OX c #CEAB93",
"+X c #E3AA84",
"@X c #E5A38B",
"#X c #E4A786",
"$X c #F5B599",
"%X c #C9ABA7",
"&X c #D7B8A7",
"*X c #CABABB",
"=X c #D1BBB5",
"-X c #C8B1AD",
";X c #F6C59D",
":X c #FFD2B2",
">X c #FFE0BF",
",X c #ABBACE",
"<X c #B2B8C7",
"1X c #B4BDD0",
"2X c #ABBDD3",
"3X c #AAC1D7",
"4X c #B7C6D9",
"5X c #D9CFCF",
"6X c #E6C4C5",
"7X c #FFE7C4",
"8X c #FFE4DB",
"9X c #F2ECD6",
"0X c #D8D7E3",
"qX c #D5E3F3",
"wX c #FAEAE5",
"eX c #FFF5EB",
"rX c #F3EBF2",
"tX c #ECF7FF",
"yX c #FFF4F3",
"uX c #FFFAF4",
"iX c #FEF6FE",
"pX c #FEFCFD",
"aX c #F4F9FC",
"sX c #EDEBF8",
"dX c None",
/* pixels */
"dXdXdXdXdXdXdXdXdXdXdXdXdXdXdXdXdXdXdXdXdXdXdXdXdXdXdXdXdXdXdXdXdXdXdXdXdXdXdXdXdXdXdXdXdXdXdXdXdXdXdXdXdXdXdXdXdXdXdXdXdXdXdXdX",
"dXdXdXdXdXdXdXdXdXdXdXdXdXdXdXdXdXdXdXdXdXdXdXdXdXdXdXdXdXdXdXdXdXdXdXdXdXdXdXdXdXdXdXdXdXdXdXdXdXdXdXdXdXdXdXdXdXdXdXdXdXdXdXdX",
"dXdXdXdXdXdXdXdXdXdXdXdXdXdXdXdXdXdXdXdXdXdXdXdXdXdXdXdXdXdXdXdXdXdXdXdXdXdXdXdXdXdXdXdXdXdXdXdXdXdXdXdXdXdXdXdXdXdXdXdXdXdXdXdX",
"dXdXdXdXdXdXdXdXdXdXdXdXdXdXdXdXdXdXdXdXdXdXdXdXdXdXdXdXdXdXr dXdXdXdXdXdXdXdXdXdXdXdXdXdXdXdXdXdXdXdXdXdXdXdXdXdXdXdXdXdXdXdXdX",
"dXdXdXdXdXdXdXdXdXdXdXdXdXdXdXdXdXdXdXdXdXdXdXdXdXdXdXdXi.i.J f Z dX6 o dXdXdXdXdXdXdXdXdXdXdXdXdXdXdXdXdXdXdXdXdXdXdXdXdXdXdXdX",
"dXdXdXdXdXdXdXdXdXdXdXdXdXdXdXdXdXdXdXdXdXdXdXdXdXc J ;.*.;.B N %.%.I G dXdXdXdXdXdXdXdXdXdXdXdXdXdXdXdXdXdXdXdXdXdXdXdXdXdXdXdX",
"dXdXdXdXdXdXdXdXdXdXdXdXdXdXdXdXdXdXdXdXdXdXdXdXm s.d.%.N a a a %.a.6.e.: - b b y dXdXdXdXdXdXdXdXdXdXdXdXdXdXdXdXdXdXdXdXdXdXdX",
"dXdXdXdXdXdXdXdXdXdXdXdXdXdXdXdXdXdXdXdXdXdXQ.q.-.&.%.N a ,.V a [ } | D.p.&.-.H y U dXdXdXdXdXdXdXdXdXdXdXdXdXdXdXdXdXdXdXdXdXdX",
"dXdXdXdXdXdXdXdXdXdXdXdXdXdXdXdXdXdXdXdXdXdXz L -.j Z Z N i.[ a 1 x ( #X@X7.p.&.y G dXdXdXdXdXdXdXdXdXdXdXdXdXdXdXdXdXdXdXdXdXdX",
"dXdXdXdXdXdXdXdXdXdXdXdXdXdXdXdXdXdXdXdXdXdXz v %.Z r Z d H =.,.6.=.1.h.h.d.&.c T 5XdXdXdXdXdXdXdXdXdXdXdXdXdXdXdXdXdXdXdXdXdXdX",
"dXdXdXdXdXdXdXdXdXdXdXdXdXdXdXdXdXdXdXdXdXdXq q d f 4 A F f u.u.i.u.a.d.d.p.n 9 t.pXdXdXdXdXdXdXdXdXdXdXdXdXdXdXdXdXdXdXdXdXdXdX",
"dXdXdXdXdXdXdXdXdXdXdXdXdXdXdXdXdXdXdXdXdXz (.L q n F w 8 7 j [ H J j j H V 8 X l.aXdXdXdXdXdXdXdXdXdXdXdXdXdXdXdXdXdXdXdXdXdXdX",
"dXdXdXdXdXdXdXdXdXdXdXdXdXdXdXdXdXdXdXdXdX. OXB , v s 6 6 @ h j Z g J h M F 6 5 ^ aXdXdXdXdXdXdXdXdXdXdXdXdXdXdXdXdXdXdXdXdXdXdX",
"dXdXdXdXdXdXdXdXdXdXdXdXdXdXdXdXdXdXdXdXdXX (..X6.; J 4 s.s.7 * 7 4 * * * * & X ^ pXdXdXdXdXdXdXdXdXdXdXdXdXdXdXdXdXdXdXdXdXdXdX",
"dXdXdXdXdXdXdXdXdXdXdXdXdXdXdXdXdXdXdXdXdX5 {.}.9.> u 4 e.s.d @ * n 0 - = s 8 9 t.iXdXdXdXdXdXdXdXdXdXdXdXdXdXdXdXdXdXdXdXdXdXdX",
"dXdXdXdXdXdXdXdXdXdXdXdXdXdXdXdXdXdXdXdXdXw {.Z.Z.G.% = XX%X0 7 %.XXXX- - XXs.F r.pXdXdXdXdXdXdXdXdXdXdXdXdXdXdXdXdXdXdXdXdXdXdX",
"dXdXdXdXdXdXdXdXdXdXdXdXdXdXdXdXdXdXdXdXdXr }.a.8.j.- & XX^.-.Z -.oXOX*.> s.p.J t.pXdXdXdXdXdXdXdXdXdXdXdXdXdXdXdXdXdXdXdXdXdXdX",
"dXdXdXdXdXdXdXdXdXdXdXdXdXdXdXdXdXdXdXdXdX3 |.D.o.l - q XX* wXs.;.oXOX8Xj + u.s t.dXdXdXdXdXdXdXdXdXdXdXdXdXdXdXdXdXdXdXdXdXdXdX",
"dXdXdXdXdXdXdXdXdXdXdXdXdXdXdXdXdXdXdXdXdX^.,.x.x.B : $ oX*.>Xb.7.@X.X7X[ :.u.m t.dXdXdXdXdXdXdXdXdXdXdXdXdXdXdXdXdXdXdXdXdXdXdX",
"dXdXdXdXdXdXdXdXdXdXdXdXdXdXdXdXdXdXdXdXdXuXs e.b.<.V $  X.X>XG.0.#XI.7X0.@Xu.n t.dXdXdXdXdXdXdXdXdXdXdXdXdXdXdXdXdXdXdXdXdXdXdX",
"dXdXdXdXdXdXdXdXdXdXdXdXdXdXdXdXdXdXdXdXdXwXy G L *.v ; .XU.;XF.S.U.j.:XZ.F.x.V dXdXdXdXdXdXdXdXdXdXdXdXdXdXdXdXdXdXdXdXdXdXdXdX",
"dXdXdXdXdXdXdXdXdXdXdXdXdXdXdXdXdXdXdXdXdXuXz 5 r F h + +XI.I.U.Y.S.+.Y.G.$X7.d dXdXdXdXdXdXdXdXdXdXdXdXdXdXdXdXdXdXdXdXdXdXdXdX",
"dXdXdXdXdXdXdXdXdXdXdXdXdXdXdXdXdXdXdXdXdXK 5 K I J 7 N x G.U.Y.U.K.S.I.U. Xx.B dXdXdXdXdXdXdXdXdXdXdXdXdXdXdXdXdXdXdXdXdXdXdXdX",
"dXdXdXdXdXdXdXdXdXdXdXdXdXdXdXdXdXdXdXdXdXX 5 L q.g 7 d ; @XI.Y.Y.U.I.U. X Xa.c dXdXdXdXdXdXdXdXdXdXdXdXdXdXdXdXdXdXdXdXdXdXdXdX",
"dXdXdXdXdXdXdXdXdXdXdXdXdXdXdXdXdXdXdXdXz z b.c.,.d = e.% +XI.n.O._ ' +X Xp.i dXdXdXdXdXdXdXdXdXdXdXdXdXdXdXdXdXdXdXdXdXdXdXdXdX",
"dXdXdXdXdXdXdXdXdXdXdXdXdXdXdXdXdXdXdXdX. c OXv.-.B   s.= oXU.n.O._ 2  X.Xp.q dXdXpXdXdXdXdXdXdXdXdXdXdXdXdXdXdXdXdXdXdXdXdXdXdX",
"dXdXdXdXdXdXdXdXdXdXdXdXdXdXdXdXdXdXdXdXdX& u u j f 4 6 F # F.#X+X#X@X@Xi.; s dXdXpXdXdXdXdXdXdXdXdXdXdXdXdXdXdXdXdXdXdXdXdXdXdX",
"dXdXdXdXdXdXdXdXdXdXdXdXdXdXdXdXdXdXdXdXdXm s s g g 6 6 U 7 F.G.Y.G.}.}.w.% F dXdXpXdXdXdXdXdXdXdXdXdXdXdXdXdXdXdXdXdXdXdXdXdXdX",
"dXdXdXdXdXdXdXdXdXdXdXdXdXdXdXdXdXdXdXdXdXdXS 6 4 r U 3 r.4 :.9.0.9.0.d.$ = r.G dXpXdXdXdXdXdXdXdXdXdXdXdXdXdXdXdXdXdXdXdXdXdXdX",
"dXdXdXdXdXdXdXdXdXdXdXdXdXdXdXdXdXdXdXdXdXdXQ.S w r g 4 r.@ =.1.:.1.:.;.i & I S dXyXdXdXdXdXdXdXdXdXdXdXdXdXdXdXdXdXdXdXdXdXdXdX",
"dXdXdXdXdXdXdXdXdXdXdXdXdXdXdXdXdXdXdXdXdXdXdX^ e U 4 @ f @ p ( _ p ) p v - b dXdXyXdXdXdXdXdXdXdXdXdXdXdXdXdXdXdXdXdXdXdXdXdXdX",
"dXdXdXdXdXdXdXdXdXdXdXdXdXdXdXdXdXdXdXdXdXdXdX].t.w 0 J i =.2.| ' 2.' 1.<.B 0 dX-XpXdXdXdXdXdXdXdXdXdXdXdXdXdXdXdXdXdXdXdXdXdXdX",
"dXdXdXdXdXdXdXdXdXdXdXdXdXdXdXdXdXdXdXdXdXdXdXdX%X9 F d.+ S.K. .O.n.2 S.S.8.8 %XiXdXdXdXdXdXdXdXdXdXdXdXdXdXdXdXdXdXdXdXdXdXdXdX",
"dXdXdXdXdXdXdXdXdXdXdXdXdXdXdXdXdXdXdXdXdXdXdXdX9X/.f d...f.K. .} f.` n.n.0.m dXpXdXdXdXdXdXdXdXdXdXdXdXdXdXdXdXdXdXdXdXdXdXdXdX",
"dXdXdXdXdXdXdXdXdXdXdXdXdXdXdXdXdXdXdXdXdXdXdXdXdXwXG w.7.9.H...[ 0.) 3.5.2.J dXdXdXdXdXdXdXdXdXdXdXdXdXdXdXdXdXdXdXdXdXdXdXdXdX",
"dXdXdXdXdXdXdXdXdXdXdXdXdXdXdXdXdXdXdXdXdXdXdXdXdXeX6X-.' ' } [ [ [ ) ) | [ c *XpXdXdXdXdXdXdXdXdXdXdXdXdXdXdXdXdXdXdXdXdXdXdXdX",
"dXdXdXdXdXdXdXdXdXdXdXdXdXdXdXdXdXdXdXdXdXdXdXdXdXdXwXN 1 < p ) a j ' p < < v =XpXdXdXdXdXdXdXdXdXdXdXdXdXdXdXdXdXdXdXdXdXdXdXdX",
"dXdXdXdXdXdXdXdXdXdXdXdXdXdXdXdXdXdXdXdXdXdXdXdXdXdXJ :.S.L.0.[ ;.}.a 9.S.F.{ -XpXdXdXdXdXdXdXdXdXdXdXdXdXdXdXdXdXdXdXdXdXdXdXdX",
"dXdXdXdXdXdXdXdXdXdXdXdXdXdXdXdXdXdXdXdXdXdXdXdXdX8X) X.V.M.9.} =.|., 4.S.S.x &XuXdXdXdXdXdXdXdXdXdXdXdXdXdXdXdXdXdXdXdXdXdXdXdX",
"dXdXdXdXdXdXdXdXdXdXdXdXdXdXdXdXdXdXdXdXdXdXdXdX=Xj ..@.V.$.( x.oX}.j.k +.M.] oXeXuXdXdXdXdXdXdXdXdXdXdXdXdXdXdXdXdXdXdXdXdXdXdX",
"dXdXdXdXdXdXdXdXdXdXdXdXdXdXdXdXdXdXdXdXdXdXdXdX&X) @.#.V.g.2 p.(.(.<.k $.M.] {.9XuXdXdXdXdXdXdXdXdXdXdXdXdXdXdXdXdXdXdXdXdXdXdX",
"dXdXdXdXdXdXdXdXdXdXdXdXdXdXdXdXdXdXdXdXdXdXdXdX&X' X.V.g.g.x L I Y L C 3.C.K.} c.eXdXdXdXdXdXdXdXdXdXdXdXdXdXdXdXdXdXdXdXdXdXdX",
"dXdXdXdXdXdXdXdXdXdXdXdXdXdXdXdXdXdXdXdXdXdXdXdX&X) g.g.V.:.e.k.E.~ Q.v 3.B.T.O.c.uXdXdXdXdXdXdXdXdXdXdXdXdXdXdXdXdXdXdXdXdXdXdX",
"dXdXdXdXdXdXdXdXdXdXdXdXdXdXdXdXdXdXdXdXdXdXdXdX&X| V.P.h.a wXpX5X! ].K 0.K.A.O.c.uXdXdXdXdXdXdXdXdXdXdXdXdXdXdXdXdXdXdXdXdXdXdX",
"dXdXdXdXdXdXdXdXdXdXdXdXdXdXdXdXdXdXdXdXdXdXdX5Xz.| M.m.,.t.rXtX2XR.0XI =.K.M.O.z.dXdXdXdXdXdXdXdXdXdXdXdXdXdXdXdXdXdXdXdXdXdXdX",
"dXdXdXdXdXdXdXdXdXdXdXdXdXdXdXdXdXdXdXdXdXdXdX^.k _ K.4.i *XpXaX4XR.pXI 2 B.C.O.c.dXdXdXdXdXdXdXdXdXdXdXdXdXdXdXdXdXdXdXdXdXdXdX",
"dXdXdXdXdXdXdXdXdXdXdXdXdXdXdXdXdXdXdXdXdXdXdXk.B j.M.] L ].rXsX'.R.pXK _ K.N.O.z.dXdXdXdXdXdXdXdXdXdXdXdXdXdXdXdXdXdXdXdXdXdXdX",
"dXdXdXdXdXdXdXdXdXdXdXdXdXdXdXdXdXdXdXdXdXdXdXb.o.M.S.l Y ].yX0X'.R.aXT k C.C. .b.dXdXdXdXdXdXdXdXdXdXdXdXdXdXdXdXdXdXdXdXdXdXdX",
"dXdXdXdXdXdXdXdXdXdXdXdXdXdXdXdXdXdXdXdXdXdXdXv.O.K.j.C ~ ].aX0X_.W.tXT l M.K. .v.dXdXdXdXdXdXdXdXdXdXdXdXdXdXdXdXdXdXdXdXdXdXdX",
"dXdXdXdXdXdXdXdXdXdXdXdXdXdXdXdXdXdXdXdXdXdXdXz.] S.8.c W <XaX0X`.R.aXY x G.M...c.dXdXdXdXdXdXdXdXdXdXdXdXdXdXdXdXdXdXdXdXdXdXdX",
"dXdXdXdXdXdXdXdXdXdXdXdXdXdXdXdXdXdXdXdXdXdXdXv.} S.{ y W ,XqX'._._.tXP : 2.S.=.c.dXdXdXdXdXdXdXdXdXdXdXdXdXdXdXdXdXdXdXdXdXdXdX",
"dXdXdXdXdXdXdXdXdXdXdXdXdXdXdXdXdXdXdXdXdXdXdXc.>.Z.v 9 ~ 3X3XW.W.4XtX~ 5 l F.>.c.dXdXdXdXdXdXdXdXdXdXdXdXdXdXdXdXdXdXdXdXdXdXdX",
"dXdXdXdXdXdXdXdXdXdXdXdXdXdXdXdXdXdXdXdXdXdXdXdX} v.c o ! 3X3XW.W.4XqXQ X q <.{ ^.dXdXdXdXdXdXdXdXdXdXdXdXdXdXdXdXdXdXdXdXdXdXdX",
"dXdXdXdXdXdXdXdXdXdXdXdXdXdXdXdXdXdXdXdXdXdXdXdX*.i.S O ! 3X2XW.W.3X4XW o 5 z c dXdXdXdXdXdXdXdXdXdXdXdXdXdXdXdXdXdXdXdXdXdXdXdX",
"dXdXdXdXdXdXdXdXdXdXdXdXdXdXdXdXdXdXdXdXdXdXdXdXdXdXy O ! 4X,XW.!.1X3XQ O o t S dXdXdXdXdXdXdXdXdXdXdXdXdXdXdXdXdXdXdXdXdXdXdXdX",
"dXdXdXdXdXdXdXdXdXdXdXdXdXdXdXdXdXdXdXdXdXdXdXdXdXdXe O ! ,X,X!.W.<X3XW O e dXdXdXdXdXdXdXdXdXdXdXdXdXdXdXdXdXdXdXdXdXdXdXdXdXdX",
"dXdXdXdXdXdXdXdXdXdXdXdXdXdXdXdXdXdXdXdXdXdXdXdXdXdXdXdXdX~.`.E ~ Q.`.D dXdXdXdXdXdXdXdXdXdXdXdXdXdXdXdXdXdXdXdXdXdXdXdXdXdXdXdX",
"dXdXdXdXdXdXdXdXdXdXdXdXdXdXdXdXdXdXdXdXdXdXdXdXdXdXdXdXdXdXP D D / dXdXdXdXdXdXdXdXdXdXdXdXdXdXdXdXdXdXdXdXdXdXdXdXdXdXdXdXdXdX",
"dXdXdXdXdXdXdXdXdXdXdXdXdXdXdXdXdXdXdXdXdXdXdXdXdXdXdXdXdXdXdXQ.t.P dXdXdXdXdXdXdXdXdXdXdXdXdXdXdXdXdXdXdXdXdXdXdXdXdXdXdXdXdXdX",
"dXdXdXdXdXdXdXdXdXdXdXdXdXdXdXdXdXdXdXdXdXdXdXdXdXdXdXdXdXdXdX=X*XdXdXdXdXdXdXdXdXdXdXdXdXdXdXdXdXdXdXdXdXdXdXdXdXdXdXdXdXdXdXdX",
"dXdXdXdXdXdXdXdXdXdXdXdXdXdXdXdXdXdXdXdXdXdXdXdXdXdXdXdXdXdXdXD P dXdXdXdXdXdXdXdXdXdXdXdXdXdXdXdXdXdXdXdXdXdXdXdXdXdXdXdXdXdXdX",
"dXdXdXdXdXdXdXdXdXdXdXdXdXdXdXdXdXdXdXdXdXdXdXdXdXdXdXdXdXdXdXdXdXdXdXdXdXdXdXdXdXdXdXdXdXdXdXdXdXdXdXdXdXdXdXdXdXdXdXdXdXdXdXdX",
"dXdXdXdXdXdXdXdXdXdXdXdXdXdXdXdXdXdXdXdXdXdXdXdXdXdXdXdXdXdXdXdXdXdXdXdXdXdXdXdXdXdXdXdXdXdXdXdXdXdXdXdXdXdXdXdXdXdXdXdXdXdXdXdX",
"dXdXdXdXdXdXdXdXdXdXdXdXdXdXdXdXdXdXdXdXdXdXdXdXdXdXdXdXdXdXdXdXdXdXdXdXdXdXdXdXdXdXdXdXdXdXdXdXdXdXdXdXdXdXdXdXdXdXdXdXdXdXdXdX"
};
