/* XPM */
static char *result[] = {
/* columns rows colors chars-per-pixel */
"64 64 245 2 ",
"   c #1C1907",
".  c #141108",
"X  c #271A06",
"o  c #351906",
"O  c #2A180C",
"+  c #1A2603",
"@  c #1D2B14",
"#  c #232C0B",
"$  c #2B2D0C",
"%  c #262507",
"&  c #35270E",
"*  c #27340A",
"=  c #2B2513",
"-  c #2A2B15",
";  c #282817",
":  c #322D12",
">  c #3C2B13",
",  c #3D2C1C",
"<  c #372718",
"1  c #2A3412",
"2  c #2D3719",
"3  c #333613",
"4  c #333C13",
"5  c #3B331D",
"6  c #353B1A",
"7  c #3B3B1B",
"8  c #373719",
"9  c #32370F",
"0  c #273725",
"q  c #3A3422",
"w  c #353B23",
"e  c #3D3B23",
"r  c #383526",
"t  c #3A2E21",
"y  c #46290B",
"u  c #432D1B",
"i  c #452817",
"p  c #43321D",
"a  c #4C361A",
"s  c #553118",
"d  c #482E25",
"f  c #443C25",
"g  c #4B3A24",
"h  c #4B352A",
"j  c #443C2C",
"k  c #4B3C2D",
"l  c #463324",
"z  c #513526",
"x  c #543A25",
"c  c #533B2C",
"v  c #5A3A27",
"b  c #4A3E32",
"n  c #573C33",
"m  c #633C2A",
"M  c #643F36",
"N  c #33421A",
"B  c #394518",
"V  c #394C11",
"C  c #3D4424",
"Z  c #3D442C",
"A  c #3B4927",
"S  c #395C36",
"D  c #344A30",
"F  c #396738",
"G  c #43461C",
"H  c #4D4C1B",
"J  c #434524",
"K  c #434D23",
"L  c #45432C",
"P  c #4C432E",
"I  c #444C2D",
"U  c #4A4B2C",
"Y  c #4D4526",
"T  c #52412B",
"R  c #54462B",
"E  c #44522D",
"W  c #4B542D",
"Q  c #465525",
"!  c #59542D",
"~  c #494835",
"^  c #554434",
"/  c #5D4534",
"(  c #5C4B35",
")  c #5D453A",
"_  c #5D4C3A",
"`  c #544A37",
"'  c #4C5636",
"]  c #525535",
"[  c #535A33",
"{  c #53533B",
"}  c #5A533B",
"|  c #535D3C",
" . c #5B593A",
".. c #624529",
"X. c #674A39",
"o. c #675739",
"O. c #775A3B",
"+. c #70592F",
"@. c #546527",
"#. c #4A6739",
"$. c #5B643C",
"%. c #53653A",
"&. c #4E602E",
"*. c #66703B",
"=. c #575846",
"-. c #495041",
";. c #635C42",
":. c #695745",
">. c #79594C",
",. c #496946",
"<. c #536B44",
"1. c #596745",
"2. c #58754B",
"3. c #5A7B57",
"4. c #517551",
"5. c #636B49",
"6. c #686747",
"7. c #756548",
"8. c #6C734D",
"9. c #65754C",
"0. c #7A744C",
"q. c #696856",
"w. c #786955",
"e. c #6B7453",
"r. c #637B54",
"t. c #6C7A5A",
"y. c #6A7A56",
"u. c #747C5C",
"i. c #767757",
"p. c #797A62",
"a. c #6D7662",
"s. c #815E3E",
"d. c #83623F",
"f. c #835A4B",
"g. c #86694C",
"h. c #896B57",
"j. c #847A56",
"k. c #8A7758",
"l. c #967659",
"z. c #8D7150",
"x. c #8B7B65",
"c. c #867B67",
"v. c #9A7B64",
"b. c #568759",
"n. c #4F8959",
"m. c #77874D",
"M. c #62825B",
"N. c #6C845C",
"B. c #698456",
"V. c #75845B",
"C. c #7B8659",
"Z. c #78925D",
"A. c #5A8C64",
"S. c #5A8966",
"D. c #599669",
"F. c #529267",
"G. c #648B64",
"H. c #6B8B61",
"J. c #638C69",
"K. c #6A8562",
"L. c #738361",
"P. c #7B8563",
"I. c #748B64",
"U. c #7B8A64",
"Y. c #798A6A",
"T. c #65946D",
"R. c #699567",
"E. c #73956A",
"W. c #7B946C",
"Q. c #779A6A",
"!. c #659B74",
"~. c #6B9C73",
"^. c #6B9773",
"/. c #779974",
"(. c #7A8D71",
"). c #5FA376",
"_. c #6BA476",
"`. c #76A278",
"'. c #6EA26F",
"]. c #82865D",
"[. c #89965C",
"{. c #97855E",
"}. c #A5865E",
"|. c #838C65",
" X c #878667",
".X c #9B846C",
"XX c #988768",
"oX c #83936B",
"OX c #8A9669",
"+X c #898A76",
"@X c #988A75",
"#X c #8A9675",
"$X c #959879",
"%X c #9F936B",
"&X c #A68967",
"*X c #A78B73",
"=X c #A69678",
"-X c #B19877",
";X c #AE926A",
":X c #9AA57A",
">X c #97AB6E",
",X c #A2A97B",
"<X c #AAAE7B",
"1X c #75A683",
"2X c #969B86",
"3X c #8D8E85",
"4X c #A79986",
"5X c #B99C88",
"6X c #A18E80",
"7X c #84A384",
"8X c #9AA685",
"9X c #A3AA8C",
"0X c #A6A787",
"qX c #B3A58C",
"wX c #A7B288",
"eX c #A7AB99",
"rX c #ACB498",
"tX c #B4B99B",
"yX c #B2B983",
"uX c #ABACA5",
"iX c #B8BBA4",
"pX c #BCBABB",
"aX c #C5B9A5",
"sX c #B8C38B",
"dX c #B9C397",
"fX c #BDC0A8",
"gX c #C4D197",
"hX c #C3CAA4",
"jX c #CBD3A9",
"kX c #C8CAB7",
"lX c #CAD1B6",
"zX c #D2D8BA",
"xX c #D6DCAE",
"cX c #DCE8B6",
"vX c #DBE2AC",
"bX c #EAF6B8",
"nX c #D7DCC3",
"mX c #CECECA",
"MX c #DEE4C9",
"NX c #E6EBC7",
"BX c #F4FBCB",
"VX c #F7FCD8",
"CX c #EBF4D3",
"ZX c #F9FCE2",
"AX c None",
/* pixels */
"AXAXAXAXAXAXAXAXAXAXAXAXAXAXAXAXAXAXAXAXAXAXAXAXAXAXAXAXAXAXAXAXAXAXAXAXAXAXAXAXAXAXAXAXAXAXAXAXAXAXAXAXAXAXAXAXAXAXAXAXAXAXAXAX",
"AXAXAXAXAXAXAXAXAXAXAXAXAXAXAXAXAXAXAXAXAXAXAXAXAXAXAXAXAXAXAXAXAXAXAXAXAXAXAXAXAXAXAXAXAXAXAXAXAXAXAXAXAXAXAXAXAXAXAXAXAXAXAXAX",
"AXAXAXAXAXAXAXAXAXAXAXAXAXAXAXAXAXAXAXAXAXAXAXAXAXAXAXAXAXAXAXAXAXAXAXAXAXAXAXAXAXAXAXAXAXAXAXAXAXAXAXAXAXAXAXAXAXAXAXAXAXAXAXAX",
"AXAXAXAXAXAXAXAXAXAXAXAXAXAXAXAXAXAXAXAXAXAXAXAXAXAXAXAXAXAXAXAXAXAXAXAXAXAXAXAXAXAXAXAXAXAXAXAXAXAXAXAXAXAXAXAXAXAXAXAXAXAXAXAX",
"AXAXAXAXAXAXAXAXAXAXAXAXAXAXAXAXAXAXAXAXAXAXAXAXAXAXAXAXAXAXAXAXAXAXAXiXAXAXAXAXAXAXAXAXAXAXAXAXAXAXAXAXAXAXAXAXAXAXAXAXAXAXAXAX",
"AXAXAXAXAXAXAXAXAXAXAXAXAXAXAXAXAXAXAXAXAXAXAXAXAXAXAXAXAXAXAXAXAXAXAX+XAXAXAXAXAXAXAXAXAXAXAXAXAXAXAXAXAXAXAXAXAXAXAXAXAXAXAXAX",
"AXAXAXAXAXAXAXAXAXAXAXAXAXAXAXAXAXAXAXAXAXAXAXAXAXAXAXAXAXAXAXAXAXAXAXAXAXAXAXAXAXAXAXAXAXAXAXAXAXAXAXAXAXAXAXAXAXAXAXAXAXAXAXAX",
"AXAXAXAXAXAXAXAXAXAXAXAXAXAXAXAXAXAXAXAXAXAXAXAXAXAXAXlXmXAXAXAXAXAXAXAXmXAXpXAXAXAXAXAXAXAXAXAXAXAXAXAXAXAXAXAXAXAXAXAXAXAXAXAX",
"AXAXAXAXAXAXAXAXAXAXAXAXAXAXAXAXAXAXAXAXAXAXAXAX+XAXAXrXp.zXAXAXjXhX$XuXAXmXuXkXAXAXAXAXAXAXAXAXAXAXAXAXAXAXAXAXAXAXAXAXAXAXAXAX",
"AXAXAXAXAXAXAXAXAXAXAXAXAXAXAXAXAXAXAXAXAXAXAXAXeXiXAXAX2XzXAXnX$X0XZXuXmXMX2XZXcXAXAXAXAXAXAXAXAXAXAXAXAXAXAXAXAXAXAXAXAXAXAXAX",
"AXAXAXAXAXAXAXAXAXAXAXAXAXAXAXAXAXAXAXAXAXAXAXAXAXAXoXjXp.nXkXAX#XhXAXAXAXAXsXgXsXvXVXAXAXAXAXAXAXAXAXAXAXAXAXAXAXAXAXAXAXAXAXAX",
"AXAXAXAXAXAXAXAXAXAXAXAXAXAXAXAXAXAXAXAXAXAXAXAXAXAXrXzX1.1.AXAXOXAXAXAXAXAXbXyXbX*.sXNXZXAXAXAXAXAXAXAXAXAXAXAXAXAXAXAXAXAXAXAX",
"AXAXAXAXAXAXAXAXAXAXAXAXAXAXAXAXAXAXAXAXAXAXAXAXAX#Xe.|.V.$X#XlXtXVXtX,X<XsXZ.>XbXgXgXtXVXVXNXMXnXAXAXAXAXAXAXAXAXAXAXAXAXAXAXAX",
"AXAXAXAXAXAXAXAXAXAXAXAXAXAXAXAXAXAXAXAXAXAXAXAXAXe.|.K P.lXtXa.9XL.OXQ @.m.*.<Xm.gXcXBXgXBX-XNXiXAXAXAXAXAXAXAXAXAXAXAXAXAXAXAX",
"AXAXAXAXAXAXAXAXAXAXAXAXAXAXAXAXAXAXAXAXAXAXAXAXzXe.4 1 N A a.D 2 A K V @.@.A 9.C 8X].OX[.BXvXxXzXAXAXAXAXAXAXAXAXAXAXAXAXAXAXAX",
"AXAXAXAXAXAXAXAXAXAXAXAXAXAXAXAXAXAXAXAXAX+X(.p.1.zX:XB ' | 2 Z Z @ N V + V &.%.#X+Xe.wXsXyXbXNXzXlXzXAXAXAXAXAXAXAXAXAXAXAXAXAX",
"AXAXAXAXAXAXAXAXAXAXAXAXAXAXAXAXAXAXAXAX@XeXkXaXuXx. XI 1.I j ~ : 6 # + * + B Q 7 4 ] *.0.|.jXVX#XlXNXAXAXAXAXAXAXAXAXAXAXAXAXAX",
"AXAXAXAXAXAXAXAXAXAXAXAXAXAXAXAXAXAXAXaX@XaX;.iXc.) R U { t.p.q._ 7 7 6 * # * 1 3 # X 6 8.OXwXOXhXhXNXAXAXAXAXAXAXAXAXAXAXAXAXAX",
"AXAXAXAXAXAXAXAXAXAXAXAXAXAXAXAXAXAX7.w.g.4X4X4Xd :.>.f.X.i.v.l _ ^ P j I 2 @ + 6 1 $ # K <XOX[.m.dX9XCXAXAXAXAXAXAXAXAXAXAXAXAX",
"AXAXAXAXAXAXAXAXAXAXAXAXAXAXAXqXx.XX&Xg.z v n ) n M X.X.X.X.< ) ) ) < _ p.w { w @ 1 %.9.1 &.*.Z.[.C.,XCXAXAXAXAXAXAXAXAXAXAXAXAX",
"AXAXAXAXAXAXAXAXAXAXAXAXAXAXv.h.+.s.l.l.z.X.>.X.) :.M m m a & u X & u R c.~ X < ; ; =.' 2 N A *.m.gXAXAXAXAXAXAXAXAXAXAXAXAXAXAX",
"AXAXAXAXAXAXAXAXAXAXAXAX4Xh.y m ..s.z.s.h.v.M :.>.z >.f.&X-X=X$X0X,X@Xo.> O = t ; ; 1.-.Z E B &.@.[.cXAXAXeXAXAXAXAXAXAXAXAXAXAX",
"AXAXAXAXAXAXAXAXAXAXAX4X.X&Xl.s.d.d.y z.O.z.h l ` 4X*X*Xl.> Q #.#.N $.OXqXx.d q ` r r q.' 2 C B Q >XvXwXAX8XAXAXAXAXAXAXAXAXAXAX",
"AXAXAXAXAXAXAXAXAXAXAXx..Xv.l.s m s y l.&Xo i 2XrX7.x H R 0X2.`.`.Q.W.B j.qX6Xw.t r t r =.Z 6 #.Q Z.Z.C.AXAXAXAXAXAXAXAXAXAXAXAX",
"AXAXAXAXAXAXAXAXAXAXAXx.6Xf.h.s s.h.l.m o o.].$X] 5. X%Xj.i.N.!.~.~.#XK.c.@X .7. XU } } ;.6 E 1 V N W jXAXAXnXAXAXAXAXAXAXAXAXAX",
"AXAXAXAXAXAXAXAXAXAXAXx.v.v.v M f.m o o O.-Xi.] V.U.|.C.].OX4.R.A.A.E.Y.oXU #X$.$.e.1 : % % ' 1 N N E <.jXfX$XMXAXAXAXAXAXAXAXAX",
"AXAXAXAXAXAXAXAXAXAXw.:.f.f.f.v o i m ..=Xj.5.oXV.B.OXK 5.#X,.^././.(.oXOXC.OXQ.B.2.5.+ - ] 2   2 @ + E wXCXiXAXAXAXAXAXAXAXAXAX",
"AXAXAXAXAXAXAXAXAXAX4X5 < i o i i X.s &X*X! |.oXV.W.#.8X8X1.a.(.(.W.' N :XB.Z.R.Q.2.Y.{ - L r w S @ E <.<.NXhXAXzXkXAXAXAXAXAXAX",
"AXAXAXAXAXAXAXAXAX4X8.& p z / 5X5XX...-XO.! ' 8XH.`.b.2.<.W.Y.a.U.Z.oX8.9.*.'.'.R./.,. X=   =.Z 1 1 A W y.C.wXL.+XAXAXAXAXAXAXAX",
"AXAXAXAXAXAXAXAXAXAXo.7 g x z c O.O }.-X..*.5.7X3./.~.'.`.#XK.5.U.oX|.V.2.`.n.'.T.J.(.q.- % ; 1 2 * N Q K $X9XAXAXAXAXAXAXAXAXAX",
"AXAXAXAXAXAXAXAXAXAXi.p Y Y c i *X;X&X}.j.*.P.r.S.1XD._.D.'.b.r.A I.U.I.Q.4.A.R./.7Xp.6.x.- U % * * K N %.] 8XAXAXAXAXAXAXAXAXAX",
"AXAXAXAXAXAXAXAX$X2X0XY & p a x &X&X}...H [ ' S.T._.D.)._._./.E.3.3.<.S ,.G.D._.J./.a.c.@XX 3 7 4 K + 4 K 1.p.#XAXAXAXAXAXAXAXAX",
"AXAXAXAXAXAXAXAXAXAX] K & h h M ;X&X+.o.$.<.3.G.n.).F.F.4.J.4.S.S.J.`.T./.1X!.~.R.A u.w.+XX =.~ | J W 4 G Z.e.2XAXAXAXAXAXAXAXAX",
"AXAXAXAXAXAXAXAXAXAX6.U R d d M &XXXo.C.<.,.S.J.S.1X4.1X1X1X1X4.S.~.^.T.~.S.^.^.2.U.u. X=.O ; iXiX9XB B B W kXAXAXAXAXAXAXAXAXAX",
"AXAXAXAXAXAXAXAXAXAX{ 3 8 g d n -XXXW W.H.S.F.D.F.!.F.F.1XD -.0 S D.!._._.A.J.S.M.N | ] p.r b rX9XtXU B N OXAXAXAXAXAXAXAXAXAXAX",
"AXAXAXAXAXAXAXAXAXAXr J e 5 d z .X=X$.Y.H.~.S.S.F.D.n.1X1XD @ 0 4.1X!.!.~.S.S.J.2.U.u.c.p.= q L iXtXH K A p.Z AXAXAXAXAXAXAXAXAX",
"AXAXAXAXAXAXAXAXAXAXq.w e P u c *XXX*.U.M.J.T.^.D.F.1XF._.3.+ @ ,./.~.Q.~.T.J.^.M.<.E P +X  J % : 9 4 V !   | 2XAXAXAXAXAXAXAXAX",
"AXAXAXAXAXAXAXAXAXAXeXw e f u v &X{.o. XP.1.J.J.S.1XF.F.D.n.,.a.2./.I.Q./.R.^.^.M.,.y.e.i.e 6 3 3 [ G G W B AXAXAXAXAXAXAXAXAXAX",
"AXAXAXAXAXAXAXAXAXAXAXZ = ~ p x ;X}.;Xo.! 8.5./.b.'.F.F.'.R.#.9.t.|.U.#XoXH.b.I.r.r.t.u.+X$ 9 G 9 ].:X$.5.8.AXAXAXAXAXAXAXAXAXAX",
"AXAXAXAXAXAXAXAXAXAXAX2X' $ a x }.}.}.&X{.j.|.B.B.D.n.).b.'.R.B.9.V.|.W ' U.H.E.M.oXP.p.j.$ 4 B 9 hX].hXi.AXAXAXAXAXAXAXAXAXAXAX",
"AXAXAXAXAXAXAXAXAXAXAXAXq.% p > z.+.&X&X..a G y.r.G.M.R.H.Q.Z.I.y.B.[ ].9.K N.L.Y.P.a.i.R $ 4 % [ gXtXhX XAXAXAXAXAXAXAXAXAXAXAX",
"AXAXAXAXAXAXAXAXAXAXAXAXp.C p 7.0.+.s XX+.7.! B.H.E.M.B.N.OXB.%.#.W.B.V.$.|.V.oX5.+X6.c.7 7 4 + $ $ 8.y.9XAXAXAXAXAXAXAXAXAXAXAX",
"AXAXAXAXAXAXAXAXAXAXAXAX$X7 p ( } R & &X.Xo.|.2.M.r.t.7XV.#X9.I.b.n.E.Z.Z.e.8.$Xw.c.c.:.7 G N * 6 G $ 6 9XAXAXAXAXAXAXAXAXAXAXAX",
"AXAXAXAXAXAXAXAXAXAXAXAXe.- l & o < i o *Xi.] t.K./.e.C E | U.Q.n.A.F S G ].[.|.q.p.w.O : % * 2 - 1 U Z +XAXAXAXAXAXAXAXAXAXAXAX",
"AXAXAXAXAXAXAXAXAXeXD wX] 5 d t = , z c c @X Xi.y.u.u.L oXe.I.N.n.'.G.W.OXi.j.O.X.@Xo < P 7 1 + u.w ] +Xt.AXAXAXAXAXAXAXAXAXAXAX",
"AXAXAXAXAXAXAXAXAXAXI [ E < b h n n M X.x a -XOXo.u.6.]  .5.oXW.n.Z.K.|.m.0.].j.@XX h u R % e iXfXw p.AXAXAXAXAXAXAXAXAXAXAXAXAX",
"AXAXAXAXAXAXAXAXAXtXAX[.K Y < ) n n X.X.X.m y k.XXl.7.o.o.U.C.r.*.W.u.c.k.%X{.o.X d , h :.U 7.tXi.AXAXAXAXAXAXAXAXAXAXAXAXAXAXAX",
"AXAXAXAXAXAXAXAXAXiXP.#X=.e b h n ) / X.......y X.l.*Xk.XXi.$.C.1. Xw. X=Xj.a & n h h ` X.a U $XpXAXAXAXAXAXAXAXAXAXAXAXAXAXAXAX",
"AXAXAXAXAXAXAXAXAXAXAXAXAXa.r ~ ` ) P d / ( / X.x i x .X.XXXXX@X@Xc.c.h.i O < w.k d , k   8 f q.a.AXAXAXAXAXAXAXAXAXAXAXAXAXAXAX",
"AXAXAXAXAXAXAXAXAXAXAXAXAXAXAX-.< , l t g c _ ^ ( _ ( i i a a y > & l o n :.h n h k k t 5 %  .eXAXAXAXAXAXAXAXAXAXAXAXAXAXAXAXAX",
"AXAXAXAXAXAXAXAXAXAXAXAXAXAXAXAXAXq j k 5 ^ ^ ( } X.:.c T o.T R R / ( / n k n h j ) j j = 2 { #XAXAXAXAXAXAXAXAXAXAXAXAXAXAXAXAX",
"AXAXAXAXAXAXAXAXAXAXAXAXAXAXAXAXAXAXAXq 5 = f ^ =.P ` T ( X.o.o.o.} } ( _ c b ^ b ~ ~ t ; j AXAXAXAXAXAXAXAXAXAXAXAXAXAXAXAXAXAX",
"AXAXAXAXAXAXAXAXAXAXAXAXAXAXAXAXAXAXAXAX2XL L e P P 5 e ` j ~ } } R ] f = _ k k b j b -.=.AXAXAXAXAXAXAXAXAXAXAXAXAXAXAXAXAXAXAX",
"AXAXAXAXAXAXAXAXAXAXAXAXAXAXAXAXAXAXAXAXAX~ 2 I { L q.. =.` j b U { 5 ~ L   X e O r -.=.3XAXAXAXAXAXAXAXAXAXAXAXAXAXAXAXAXAXAXAX",
"AXAXAXAXAXAXAXAXAXAXAXAXAXAXAXAXAXAXAXAXAX~ ~   =     ; ~   = ; w -   X t ; p.=.c.AXAXAXAXAXAXAXAXAXAXAXAXAXAXAXAXAXAXAXAXAXAXAX",
"AXAXAXAXAXAXAXAXAXAXAXAXAXAXAXAXAXAXAXAXAXAXAXAXAXAXAXAXAXAXAXAX3XAXAXAXAXAXAXAXAXAXAXAXAXAXAXAXAXAXAXAXAXAXAXAXAXAXAXAXAXAXAXAX",
"AXAXAXAXAXAXAXAXAXAXAXAXAXAXAXAXAXAXAXAXAXAXAXAXAXAXAXAXAXAXAXAXAXAXAXAXAXAXAXAXAXAXAXAXAXAXAXAXAXAXAXAXAXAXAXAXAXAXAXAXAXAXAXAX",
"AXAXAXAXAXAXAXAXAXAXAXAXAXAXAXAXAXAXAXAXAXAXAXAXAXAXAXAXAXAXAXAXAXAXAXAXAXAXAXAXAXAXAXAXAXAXAXAXAXAXAXAXAXAXAXAXAXAXAXAXAXAXAXAX",
"AXAXAXAXAXAXAXAXAXAXAXAXAXAXAXAXAXAXAXAXAXAXAXAXAXAXAXAXAXAXAXAXAXAXAXAXAXAXAXAXAXAXAXAXAXAXAXAXAXAXAXAXAXAXAXAXAXAXAXAXAXAXAXAX",
"AXAXAXAXAXAXAXAXAXAXAXAXAXAXAXAXAXAXAXAXAXAXAXAXAXAXAXAXAXAXAXAXAXAXAXAXAXAXAXAXAXAXAXAXAXAXAXAXAXAXAXAXAXAXAXAXAXAXAXAXAXAXAXAX",
"AXAXAXAXAXAXAXAXAXAXAXAXAXAXAXAXAXAXAXAXAXAXAXAXAXAXAXAXAXAXAXAXAXAXAXAXAXAXAXAXAXAXAXAXAXAXAXAXAXAXAXAXAXAXAXAXAXAXAXAXAXAXAXAX",
"AXAXAXAXAXAXAXAXAXAXAXAXAXAXAXAXAXAXAXAXAXAXAXAXAXAXAXAXAXAXAXAXAXAXAXAXAXAXAXAXAXAXAXAXAXAXAXAXAXAXAXAXAXAXAXAXAXAXAXAXAXAXAXAX",
"AXAXAXAXAXAXAXAXAXAXAXAXAXAXAXAXAXAXAXAXAXAXAXAXAXAXAXAXAXAXAXAXAXAXAXAXAXAXAXAXAXAXAXAXAXAXAXAXAXAXAXAXAXAXAXAXAXAXAXAXAXAXAXAX",
"AXAXAXAXAXAXAXAXAXAXAXAXAXAXAXAXAXAXAXAXAXAXAXAXAXAXAXAXAXAXAXAXAXAXAXAXAXAXAXAXAXAXAXAXAXAXAXAXAXAXAXAXAXAXAXAXAXAXAXAXAXAXAXAX"
};
