/* XPM */
static char *a42b99d7ae064287eb34f09e578540dcpoRLxBbm3h9byatW[] = {
/* columns rows colors chars-per-pixel */
"64 64 211 2 ",
"   c #9A5616",
".  c #975619",
"X  c #99571B",
"o  c #9A591B",
"O  c #905416",
"+  c #8F5D2C",
"@  c #995622",
"#  c #955923",
"$  c #9D5E26",
"%  c #9C5F29",
"&  c #965A26",
"*  c #845C38",
"=  c #A05F25",
"-  c #8C642D",
";  c #8F682F",
":  c #8D6027",
">  c #93652D",
",  c #9B622B",
"<  c #9C682F",
"1  c #8E6634",
"2  c #8D6834",
"3  c #8C6639",
"4  c #8C6838",
"5  c #916632",
"6  c #916935",
"7  c #9B6A32",
"8  c #95663D",
"9  c #99673D",
"0  c #95683F",
"q  c #9C6839",
"w  c #A2672E",
"e  c #A1682F",
"r  c #A06730",
"t  c #A16931",
"y  c #A1753D",
"u  c #A17133",
"i  c #8F6847",
"p  c #8C6A4E",
"a  c #856242",
"s  c #956841",
"d  c #9A6D44",
"f  c #9F7546",
"g  c #9E7D5A",
"h  c #876D56",
"j  c #A06F46",
"k  c #A2754B",
"l  c #AE7B4D",
"z  c #A47446",
"x  c #B17C4E",
"c  c #AF7B54",
"v  c #B17C50",
"b  c #9D7E62",
"n  c #BE8B4D",
"m  c #B8854E",
"M  c #A78159",
"N  c #B78352",
"B  c #B98352",
"V  c #B68953",
"C  c #BE8D54",
"Z  c #BE8E58",
"A  c #BF915F",
"S  c #AB8B67",
"D  c #AB8C6C",
"F  c #A78C6E",
"G  c #B18E6B",
"H  c #B18E64",
"J  c #AE906D",
"K  c #B6936B",
"L  c #BE996C",
"P  c #B89263",
"I  c #AD8E72",
"U  c #A88F79",
"Y  c #B08F70",
"T  c #AB937E",
"R  c #A7927F",
"E  c #B29173",
"W  c #B2987F",
"Q  c #C38D4E",
"!  c #D48F4E",
"~  c #D5934D",
"^  c #D9954D",
"/  c #C28E53",
"(  c #C88F58",
")  c #C49255",
"_  c #CC9354",
"`  c #C5945A",
"'  c #CA955A",
"]  c #CD9A5D",
"[  c #CE9957",
"{  c #D29353",
"}  c #DC9E56",
"|  c #D49C5D",
" . c #DB9E5C",
".. c #D59657",
"X. c #E29E54",
"o. c #E39F5A",
"O. c #D6A15E",
"+. c #DCA15D",
"@. c #E1A35C",
"#. c #E2A056",
"$. c #C59665",
"%. c #C89666",
"&. c #CD9C62",
"*. c #CA9A6A",
"=. c #C69866",
"-. c #D49E62",
";. c #DA9F62",
":. c #C19B74",
">. c #CCA46C",
",. c #CEA86F",
"<. c #CFA267",
"1. c #D5A164",
"2. c #DBA363",
"3. c #D4A46B",
"4. c #DBA66A",
"5. c #DDAA6C",
"6. c #D6A96E",
"7. c #C7A576",
"8. c #CCA573",
"9. c #CDA874",
"0. c #CAA578",
"q. c #D2A772",
"w. c #D5AA73",
"e. c #DBAC73",
"r. c #D6AD7C",
"t. c #DAAE7B",
"y. c #DCB17D",
"u. c #D6B17D",
"i. c #E3A565",
"p. c #E4A966",
"a. c #E3A669",
"s. c #E2AA6C",
"d. c #E8A669",
"f. c #E2AE73",
"g. c #E2AF78",
"h. c #E4B57D",
"j. c #E8B57C",
"k. c #E4B87E",
"l. c #EAB97F",
"z. c #A69485",
"x. c #A99583",
"c. c #A79589",
"v. c #B59C88",
"b. c #C9AA85",
"n. c #DEB582",
"m. c #DEB985",
"M. c #E4B682",
"N. c #E8B582",
"B. c #E3B984",
"V. c #EBBD85",
"C. c #E3B789",
"Z. c #E4BA89",
"A. c #EABD8A",
"S. c #E6BF90",
"D. c #CFBDAE",
"F. c #D3BBA4",
"G. c #D2BEAC",
"H. c #CCBEB1",
"J. c #D2BEB1",
"K. c #E7C28E",
"L. c #ECC28D",
"P. c #EDC087",
"I. c #F4C58F",
"U. c #E5C193",
"Y. c #EBC391",
"T. c #E3C498",
"R. c #F4C592",
"E. c #F5CA95",
"W. c #D3C0AD",
"Q. c #C9C2BC",
"!. c #C7C3B7",
"~. c #D1C5B6",
"^. c #F5D6B7",
"/. c #D2D0CE",
"(. c #D2D2D2",
"). c #FFEFD0",
"_. c #FEECDC",
"`. c #FFF1DC",
"'. c #F6EFE6",
"]. c #F4EFEC",
"[. c #F7F0E4",
"{. c #FBF3E6",
"}. c #F5F3EE",
"|. c #FBF3EC",
" X c #F0EFF4",
".X c #EEF2F5",
"XX c #EDF5FC",
"oX c #EFF9FE",
"OX c #E7F4FC",
"+X c #F2F5F6",
"@X c gray96",
"#X c #F6F4F5",
"$X c #F5F5F7",
"%X c #F6F6F5",
"&X c #F5F5F4",
"*X c #F9F3F1",
"=X c #F8F4F1",
"-X c #F9F5F3",
";X c #F9F6F5",
":X c #F9F4F3",
">X c #F7F8F5",
",X c #F9F8F6",
"<X c #F9F8F6",
"1X c #F2F6F9",
"2X c #F4F5F9",
"3X c #F5F5F9",
"4X c #F5F4FD",
"5X c #F3F5F9",
"6X c #F9F6FA",
"7X c #F4FAFC",
"8X c #FAFAFC",
/* pixels */
"=X=X|.|.=X#X=X=X6X$X8XXXXX8X_.`.|.=X=X}.}.|.|.|.}.}.}.}.}.}.}.}.=X}.}.}.|.|.|.|.}.}.}.}.=X}.=X|.`._.;XXXOXoX5X&X=X=X}.=X+X+X#X#X",
"#X=X=X=X#X#X#X#X=X+X8X8XoX/.W E x.c.c.z.x.x.x.R x.x.c.c.c.c.x.z.z.z.c.c.x.x.T T T x.z.z.z.z.c.x.E T /.oXoX7X+X=X=X=X=X=X#X1X#X#X",
"3X3X;X#X1X1X#X#X6X=X}.=X+X!.g f k k k k k k k k k k k k k k k k f f k k k z k k k k k k k k k k d p Q.5X.X1X&X,X=X=X=X=X1X1X3X3X",
"4X3X3X3X1X1X#X#X;X=X}.}.=X~.M < < < e e w w w e t t t r e e e e t 7 t e w w w t e t t t e w e t q i H.;X+X3X#X&X=X=X=X=X1X1X3X#X",
"4X4X3X3X1X1X#X#X=X}.|.|.|.W.l O s.s.s.s.s.s.s.s.s.s.s.s.s.5.5.5.s.s.s.s.s.s.s.s.4.e.e.s.s.s.p.s.% d D.|.;X#X,X}.=X#X=X#X1XXX+X+X",
"4X3X#X#X1X1X#X#X,X].|.|.{.F.B X i.2.2.2.2.2.4.4.2.2.2.2.2.O.O.O.2.2.2.2.2.2.2.2.4.4.4.2.2.+. .} $ j F.|.=X].#X,X=X=X=X&X.X.X+X+X",
"#X#X=X=X+X+X#X#X#X=X=X*X-XG.B o i.@.+.+.| -.1.1.2.2.2.O.| | O.2.2.+.O.2.1.2.2.1.1.1.1.| +.+.} ^ o 9 F.|.=X&X=X#X#X#X$X+X.X.X+X#X",
"=X=X|.=X=X+X+X#X+X8X;X].,XG.v X i.2.O.| ' ` ` ` ' ` ) / ) ) ] -.1.| ' ) ) ) ` ` ` ` ` ' | +.} { = 9 G.{.}.8X3X+X+X+X&X+X.X.X+X>X",
"=X=X}.}.=X+X+X1X1X3X3X6X#XJ.v o a.5.3.C h.t.t.t.t.w.w.w.e.w.- 3.<.: k.e.t.t.t.r.t.t.t.e.C 1. .{ % 0 G.|.#X3X1X3X1X+X&X+X1X+X=X=X",
"=X=X}.}.=X+X+X1X1X1X3X3X#XJ.v o 4.4.3.Z Z.B.C.Z.Z.M.M.B.B.y.1 8.w.6 L.B.Z.B.Z.Z.Z.Z.M.t./ 2.;._ % s G.=X#X1X1X3X1X+X+X&X+X3X=X=X",
"3X$X=X=X#X#X3X1X1X1X3X3X=XW.x X a.4.1.Z A.Z.Z.Z.M.M.M.M.M.t.1 8.8.6 L.B.B.B.C.Z.Z.C.M.t./ 2. .{ % s D.=X1X1X1X1X3X+X$X$X#X#X=X=X",
"4X3X#X=X#X#X#X3X1X1X3X#X=XW.x X s.4.1.Z A.B.B.n.M.M.h.h.M.t.1 8.8.6 L.M.M.B.B.B.B.M.h.e./ 2. .{ , s D.=X1X1X1X3X3X#X$X#X#X#X=X=X",
"4X3X;X=X#X#X#X#X1X1X3X#X=XW.x o d.2.1.Z V.B.M.M.B.h.h.h.M.t.1 8.w.6 L.B.N.M.M.M.M.M.h.e.Q 2. .{ , s D.=X+X1X#X3X#X$X;X#X#X#X=X=X",
"1X3X#X=X=X=X=X=X3X3X3X#X=XW.x o i.2.1.Z A.B.B.B.h.h.h.h.M.t.3 7.8.6 A.M.B.M.M.M.M.M.h.5.Q 2.+.{ , s D.=X#X3X$X#X#X#X=X#X#X+X=X=X",
"1X+X=X|.}.}.}.=X#X3X#X;X=XG.x o d.2.1.Z V.B.k.k.h.h.j.k.M.y.3 0.9.6 L.B.B.M.B.M.h.h.h.5.Q 2.+.{ , s G.=X=X#X=X;X=X=X=X=X#X1X#X=X",
"1X+X=X}.}.}.}.}.#X#X#X;X=XJ.v o d.2.;./ P.B.k.k.k.h.h.h.M.t.3 0.9.6 L.B.M.h.h.h.M.B.h.5.Q 2.+._ , 0 D.=X=X#X=X;X=X=X=X=X#X1X#X#X",
"+X#X=X=X=X#X=X#X3X#X$X;X=XW.v X i.i.;./ V.B.M.h.h.h.h.k.M.t.3 7.9.1 Y.B.B.M.M.N.M.M.h.t./ 2. .{ , s D.=X=X#X=X;X#X#X#X#X=X&X+X+X",
"+X#X=X=X#X#X#X#X#X#X$X=X=XW.v X d.2.;./ V.B.M.M.h.h.h.k.M.t.3 7.8.1 Y.m.B.M.N.N.M.M.h.t./ 2. .{ % s D.#X=X=X$X;X+X+X#X#X=X=X+X+X",
"+X#X=X=X#X#X#X#X#X#X$X=X=XW.v X a.2.1.Z A.m.B.B.M.h.k.k.M.t.4 7.9.; L.B.B.M.M.j.h.h.k.e.C 2. .~ , s D.#X=X=X$X;X+X+X#X#X=X=X+X+X",
"+X#X=X=X#X#X#X#X+X#X#X=X=XW.x . s.2.1.Z A.m.B.B.M.h.k.k.M.y.1 8.,.; K.B.M.M.h.h.h.k.k.e.n O.} ~ $ s D.#X=X=X$X;X#X+X#X#X=X=X#X#X",
"+X#X=X=X#X#X#X#X+X#X#X=X=XG.l . s.2.1.Z A.B.B.M.M.h.h.h.j.y.5 >.,.; K.B.M.M.h.h.h.k.k.e.C O.} ~ $ s D.#X=X>X#X;X#X#X#X#X=X=X#X#X",
"+X#X=X=X#X#X#X#X#X#X#X=X=XG.l . s.2.1./ V.B.M.N.j.h.h.h.j.g.> >.,.; Y.B.B.M.M.h.h.k.k.e.C 1.} { $ s D.#X=X=X#X;X#X#X#X#X=X=X#X#X",
"+X#X=X=X#X#X#X#X#X#X$X=X}.D.l X s.2.1./ V.M.M.N.N.h.h.k.h.t.; >.3.5 Y.B.B.M.M.M.h.M.M.e.C -. .{ % s D.#X=X=X#X;X#X#X#X#X=X=X+X+X",
"+X#X=X=X#X#X#X#X3X#X&X}.].D.v o s.2.1./ V.M.M.N.M.M.M.k.h.y.1 >.q.5 Y.B.M.M.N.N.N.M.h.w.C ;. .{ % s D.#X=X=X$X;X+X#X#X#X=X=X+X+X",
"+X#X=X=X#X#X#X#X#X+X=X=X}.G.l X s.O.2./ V.B.M.M.M.M.B.n.M.r.2 >.q.> A.B.M.M.N.N.N.h.h.e.C  .i.! $ s D.=X=X=X$X;X#X#X#X#X=X=X+X+X",
"+X#X=X=X#X#X#X#X+X+X=X=X=XW.v . s.2.4./ V.h.h.N.N.M.B.B.M.n.- w.3.> L.h.N.N.h.j.h.j.h.e./ | o.^ $ s D.#X=X=X;X;X#X#X#X#X=X=X+X+X",
"+X#X=X=X#X#X#X#X3X+X$X=X=XW.v o a.2.d.Q 2.-.| _ ' ' ` ` &.&.7 <.1.u 3.Z ` ` ' ' ' ] ` ) Q  .X.~ $ s D.#X&X>X;X;X#X#X#X#X=X=X+X+X",
"+X#X=X=X#X#X#X#X3X+X$X=X=XW.v o s.2.d.2.2.| ;.2.2.2.4.1.1.4.1.5.5.] 3.3.3.1.4.1.1.2.3.] O.+.X.^ $ s D.=X&X=X;X;X#X#X#X#X=X=X+X+X",
"+X#X=X=X#X#X#X#X#X#X$X=X=XW.v o f.1.-.;.2.2.2.a.2.2.4.4.2.;.5.-.1.3.3.6.w.3.4.1.4.1.3.1.5.+.X.~ $ s D.=X}.=X$X;X+X+X#X#X=X=X+X+X",
"+X#X=X=X#X#X#X#X#X#X$X=X=XW.v # t.8.q.3.Z C / n n / C C / ( m ` ) C ` V Z C C / C m Z ) &. .@.~ $ s D.=X}.=X$X;X+X+X#X#X=X=X+X+X",
"+X#X=X=X#X#X#X#X#X#X$X=X=XW.v # K D G L U.Y.E.R.E.E.Y.Y.R.R.A.E.I.V.E.Y.E.R.R.R.R.R.R.V.&.-. .{ % s D.=X}.=X$X;X+X+X#X#X=X=X+X+X",
"+X#X=X=X#X#X#X#X#X#X$X=X=XW.v & b.).^.S T.S.n.A.n.Z.m.Z.Z.B.S.M.N.M.M.Z.B.M.N.M.k.B.n.y.N ;.2.{ % s D.=X}.=X$X;X#X#X#X#X=X=X+X+X",
"+X#X=X=X#X#X#X#X3X#X#X=X=XG.v # :.b.M H U.Z.M.M.h.k.M.B.M.M.A.h.h.l.B.M.B.M.M.h.j.h.M.y.Z 2. .{ % s D.#X=X=X#X#X+X+X#X$X=X=X+X#X",
"+X#X=X=X#X#X#X#X3X#X#X=X=XW.v # r.K M P A.M.h.h.j.j.h.h.h.h.h.h.h.f.h.h.k.k.j.j.j.j.h.t.) 2. .{ % s D.#X=X=X#X;X+X+X#X#X=X=X+X+X",
"+X#X=X=X#X#X#X#X3X#X$X=X=XW.v # 8.L f V k.3.e.1.1.1.1.1.3.3.3.5.5.1.5.3.3.1.5.1.1.5.3.1.)  .} ~ $ s D.#X=X=X;X;X#X#X#X#X=X=X+X+X",
"+X#X=X=X#X#X#X#X#X#X$X=X=XW.v # g.3.e.3.-.] 4.| 1.1.-.-.1.| 1.| | | | -.-.-.-.| | 2.-.-.|  .#.^ $ s D.#X=X=X;X;X+X#X#X#X=X=X#X3X",
"+X#X=X=X#X#X#X#X#X#X$X=X=XW.v X s.2.O.2.s.2.O.2.2.2.2.2.2.| s.+.+.2.2.2.2.2.2.2.2.2.2.2.p.} X.^ $ s D.#X=X=X;X;X+X#X#X#X=X&X+X+X",
"+X#X=X=X#X#X#X#X#X#X#X=X=XW.v X s.4.2.s.2.] 2.1.1.O.1.1.1.O.| 2.2.[ 2.2.2.1.1.2.2.2.1.2.2.+.X.~ $ s D.#X=X=X;X;X#X#X#X=X}.}.&X+X",
"+X#X=X=X#X#X#X#X#X#X#X=X=XW.v . 4.1.5.V e.y.3.e.e.w.w.w.,.3.y <.&.y w.q.w.w.e.e.e.w.w.e.` 4.+...% s D.#X=X=X#X#X#X#X#X&X].].&X+X",
"+X#X=X=X#X#X#X#X#X#X#X=X=XW.v . s.3.3.V A.B.A.Z.Z.B.B.A.n.n.1 q.q.- K.B.K.B.B.B.B.Z.B.M.V 5.2.{ % s D.#X=X=X#X#X+X+X#X&X}.}.+X3X",
"1X#X=X=X#X#X#X#X3X#X#X=X=XW.x . a.2.1.Z V.B.B.B.B.n.M.y.k.y.1 >.q.5 L.B.B.B.M.h.h.k.k.t.) 2. .{ % s D.#X=X=X#X;X+X&X&X&X}.=X>X+X",
"+X#X=X=X#X#X#X$X+X#X#X=X=XW.x X d.2.1.Z V.B.B.B.B.M.M.y.k.y.1 8.q.5 L.B.B.B.h.h.h.h.k.e./ 2. .{ $ s D.#X=X=X#X;X+X&X+X&X=X=X+X+X",
"+X#X=X=X#X#X#X#X+X+X#X=X=XW.l . a.2.1.Z A.B.B.B.B.B.M.M.M.y.3 7.q.5 Y.m.m.B.M.M.M.M.y.e./ 1.+.{ % s D.#X=X=X$X;X+X+X+X=X=X=X+X+X",
"+X#X=X=X#X#X#X#X#X+X#X=X=XW.v X i.2.1.Z A.B.B.B.M.M.M.M.M.y.3 7.q.5 L.m.m.B.M.h.M.M.M.e./ 2. .{ $ s D.#X=X=X$X;X+X+X#X#X=X=X+X+X",
"+X#X=X=X#X#X#X#X#X+X$X=X=XW.v X i.2.1./ V.M.M.j.j.j.j.h.h.y.1 8.3.> L.M.M.M.h.j.j.j.h.e.Q 2.X.~ , s D.#X=X=X$X;X+X+X#X$X=X=X#X+X",
"+X#X=X=X$X+X+X#X#X#X$X=X=XW.v X i.2.1./ V.M.M.j.j.j.j.h.h.t.1 8.3.> L.M.M.M.h.j.j.j.h.e.Q 2.o.~ $ s D.#X=X=X$X;X+X+X#X#X=X=X#X#X",
"+X#X=X=X$X+X&X#X#X#X$X=X=XW.v X s.2.1.Z A.B.M.M.h.j.j.h.k.y.4 7.q.5 Y.m.m.B.M.h.M.M.M.w.C 2.+.{ $ s D.#X=X=X$X;X#X#X#X#X=X=X#X#X",
"+X#X=X=X=X+X&X+X3X#X$X=X}.G.x X s.2.1.Z A.B.M.M.h.h.j.h.M.u.4 7.9.1 Y.B.B.B.M.M.M.M.M.e.C 2.+.{ % 0 G.=X=X#X$X;X#X#X#X=X=X&X1X3X",
"XX+X=X=X#X#X#X#X3X1X#X=X|.W.x   i.2.1./ V.M.M.k.h.h.j.h.M.y.1 7.9.5 L.B.M.M.M.h.M.k.h.e.Q 2.o.{ $ 9 G.=X#X3X$X;X=X=X=X=X#X1X1X1X",
"XX+X=X=X#X#X#X#X1X1X+X=X=XW.x X i.2.1.Z V.M.B.M.h.j.j.h.M.y.1 7.8.1 L.M.M.N.M.M.h.k.h.5.Q 2.o...$ 9 G.-X#X3X$X;X=X=X=X=X#X1X1X1X",
"1X1X=X=X#X#X#X#X+X+X+X#X=XG.x X d.2.1.Z A.B.B.B.M.M.M.h.M.y.3 7.9.2 Y.M.M.M.M.M.M.k.h.e.Q 2. .{ % 0 G.=X3X3X2X3X#X=X=X=X#X1X3X+X",
"1X3X#X=X=X=X=X&X+X+X+X#X#XJ.c o s.2.1.Z A.B.B.B.M.h.M.M.B.n.3 0.9.6 Y.M.M.M.M.M.M.k.h.e./ 2. .{ % s G.;X3X4X3X3X#X=X=X=X#X#X#X#X",
"4X3X;X=X=X#X=X&X+X+X+X#X#XJ.v @ a.2.1.Z A.B.M.M.M.h.j.M.M.y.3 8.8.5 L.M.M.M.M.M.M.B.k.e.Q  . .{ % s D.#X1X1X1X3X+X+X=X=X#X#X=X=X",
"3X3X=X=X#X#X&X&X&X+X=X=X&XH.c @ a.2.1.Z A.M.M.B.M.j.j.M.M.y.1 8.8.5 L.M.M.N.N.N.B.B.h.e.Q  . ._ % s D.=X1X1X1X1X1X+X=X=X#X#X=X=X",
"3X#X=X=X+X+X+X+X+X&X=X=X}.D.c @ a.4.1./ A.B.M.M.h.h.j.M.M.y.1 8.q.5 L.M.M.M.M.B.M.k.k.e.n |  .{ , 0 G.=X3X1X1X3X1X+X=X=X#X#X=X=X",
"#X#X=X=X+X+X+X+X#X=X}.}.}.G.x o a.4.3.) V.h.h.h.k.h.h.h.h.t.5 8.q.5 L.k.h.h.h.h.h.k.h.5.n |  .{ , 0 G.|.#X3X#X3X1X+X&X=X+X#X=X=X",
"=X=X=X=X+X1X1X#X3X=X].'.|.F.B X s.4.4.C e.] 1.] 1.&.&.&.&.&.7 3.q.5 t.&.] &.-.&.&.&.] ) _ | | { , 0 F.-X=X$X;X#X#X#X=X=X+X+X=X=X",
"=X=X=X=X1X1X3X3X#X;X}.{.|.F.x   2.2.2.| 2.| | | ] 1.1.1.-.1.-.1.;.1.-.-.2.] -.] -.1.1.|  .2.+.{ & d F.|.}.=X=X;X#X#X#X+X1X+X=X=X",
"&X=X=X=X1X1X3X3X$X=X*X|.|.F.N X a.a.2.a.2.2. .2.2.2.2.2.2.| s.| | a. .2. .2.2.2.2.2.2.2.+.@.} { $ d G.|.-X=X}.}.#X#X#X+X1X1X#X=X",
"&X=X=X=X1X1X3X3X3X=X}.}.}.G.c # f.2.-.-.2.;.2.;.2.;.2.-.5.-.;.2.a.] a.2.| 2.2.2.4.2.2.2.2.;. .] + s D.}.=X,X-X}.=X#X#X+X1X1X#X=X",
"=X=X=X=X1X1X+X#X;X=X}.}.=XQ.M + t.*.*.=.*.%.*.=.$.*.*.A *.*.$.*.*.=.=.=.*.A =.$.=.=.%.%.=.$.&.=.8 p H.,X=X$X,X=X=X#X#X+X1X1X=X=X",
"#X#X=X=X1X1X+X=X=X=X=X,XXXQ.b * E F D D D S D D D E I D D D D D D E D D J D J D D D I Y D D J G a h Q.8X X+X;X=X#X#X#X#X1X3X=X=X",
"3X3X#X#X+X+X=X=X=X=X;X1XXX(.v.I {.|.|.|.[.{.|.|.[.[.'.|.{.'.|.|.|.|.|.[.[.{.|.[.{.{.|.|.{.[.[._.U x.(.XX.X1X#X;X#X#X=X+X1X+X=X=X",
"3X3X$X#X+X+X=X=X=X=X&X+X7X8X_.{.#XoX8X.X3X+X>X#X5X1X8X.X8X1X+X3X#X8X&X&X7X.X5X5X5X1X3X3X1X5X5X}.{._.8X7XXX8X$X#X#X#X=X#X+X+X=X=X"
};
