/* XPM */
static char *e1d054f3707344fda1609ec687530cacA0G3HLIJHC2ObKh4[] = {
/* columns rows colors chars-per-pixel */
"64 64 234 2 ",
"   c #3D211D",
".  c #3E2B24",
"X  c #3C282B",
"o  c #382A36",
"O  c #3A3237",
"+  c #3E3027",
"@  c #471D16",
"#  c #5C1B07",
"$  c #631C16",
"%  c #4D2112",
"&  c #4B241D",
"*  c #46281D",
"=  c #522415",
"-  c #54231A",
";  c #502409",
":  c #7E3B1C",
">  c #60301C",
",  c #4B2523",
"<  c #44262C",
"1  c #432A2B",
"2  c #4A2B2B",
"3  c #472525",
"4  c #532D2A",
"5  c #552923",
"6  c #56342D",
"7  c #4A2A31",
"8  c #522F33",
"9  c #443537",
"0  c #5C3A34",
"q  c #593737",
"w  c #4D3229",
"e  c #66392A",
"r  c #7D3E23",
"t  c #7A3D2C",
"y  c #763B29",
"u  c #633D34",
"i  c #643C3B",
"p  c #6C3D39",
"a  c #6C3C33",
"s  c #733E32",
"d  c #783D36",
"f  c #602829",
"g  c #7D431B",
"h  c #5B423C",
"j  c #4E463B",
"k  c #6B432E",
"l  c #774525",
"z  c #6B4234",
"x  c #66433C",
"c  c #6C433C",
"v  c #6A4739",
"b  c #74423B",
"n  c #794539"
"m  c #352C41",
"M  c #523B46",
"N  c #6C3D42",
"B  c #773F40",
"V  c #574448",
"C  c #494754",
"Z  c #5A4C52",
"A  c #5D535A",
"S  c #4B4044",
"D  c #644343",
"F  c #6C4443",
"G  c #664A49",
"H  c #744443",
"J  c #784A46",
"K  c #75534D",
"L  c #685A56",
"P  c #785856",
"I  c #6A544A",
"U  c #6D615D",
"Y  c #5D5D62",
"T  c #665B61",
"R  c #615F74",
"E  c #596575",
"W  c #57636F",
"Q  c #63646C",
"!  c #686374",
"~  c #823D1D",
"^  c #823B0D",
"/  c #873932",
"(  c #85421B",
")  c #A95B1B",
"_  c #874727",
"`  c #924C2A",
"'  c #9B592D",
"]  c #874836",
"[  c #87543A",
"{  c #955539",
"}  c #8F4F33",
"|  c #A85C28",
" . c #A85D37",
".. c #BB4D3C",
"X. c #9E6230",
"o. c #A76226",
"O. c #A3643C",
"+. c #A86133",
"@. c #BB743E",
"#. c #BD722F",
"$. c #D04F32",
"%. c #CD6F32",
"&. c #854B45",
"*. c #87564A",
"=. c #955A48",
"-. c #865753",
";. c #965C52",
":. c #A55A47",
">. c #BD4E45",
",. c #9E6244",
"<. c #9E664F",
"1. c #986558",
"2. c #A46749",
"3. c #B16D4C",
"4. c #B77248",
"5. c #A56D5C",
"6. c #A86B56",
"7. c #AB735D",
"8. c #AE7657",
"9. c #B47B5E",
"0. c #B77356",
"q. c #B27049",
"w. c #856765",
"e. c #996E65",
"r. c #8B7576",
"t. c #877777",
"y. c #91797B",
"u. c #95766E",
"i. c #A86D63",
"p. c #AA7464",
"a. c #A97868",
"s. c #B37665",
"d. c #AC7670",
"f. c #C67D4E",
"g. c #C47B58",
"h. c #D47E45",
"j. c #C37D6A",
"k. c #9C8376",
"l. c #BB8267",
"z. c #AB8C7B",
"x. c #A98678",
"c. c #B48574",
"v. c #B78B72",
"b. c #C88659",
"n. c #D98B59",
"m. c #DB925C",
"M. c #DF894E",
"N. c #E48E4C",
"B. c #FA894A",
"V. c #E9944E",
"C. c #ED8E53",
"Z. c #F88B54",
"A. c #E79757",
"S. c #F59356",
"D. c #C78664",
"F. c #DC976B",
"G. c #C68C7A",
"H. c #DC9B74",
"J. c #D59978",
"K. c #D28B61",
"L. c #E29666",
"P. c #E19C73",
"I. c #DBA579",
"U. c #E4A37A",
"Y. c #E4A779",
"T. c #687988",
"R. c #727C93",
"E. c #8A7D86",
"W. c #76859B",
"Q. c #76828F",
"!. c #7A8CA1",
"~. c #978789",
"^. c #8C929E",
"/. c #A38D87",
"(. c #A79B9A",
"). c #B0948B",
"_. c #B2A09C",
"`. c #9198A9",
"'. c #929FB2",
"]. c #8F8EA0",
"[. c #AB9AA0",
"{. c #96A6B5",
"}. c #AAA2A6",
"|. c #BFADB2",
" X c #BDADAD",
".X c #C49989",
"XX c #D49883",
"oX c #E19F83",
"OX c #DFA584",
"+X c #DBA888",
"@X c #CEA497",
"#X c #D6A897",
"$X c #CAA289",
"%X c #E3A483",
"&X c #E7A687",
"*X c #E8AF8E",
"=X c #CEAFAC",
"-X c #C8B6B9",
";X c #D2B9B5",
":X c #D6B6A9",
">X c #FDC39E",
",X c #CDC2BE",
"<X c #FFC6A4",
"1X c #A7B9C8",
"2X c #B4BBC7",
"3X c #ABBCD3",
"4X c #B2BED6",
"5X c #C9BBC4",
"6X c #ACC3D5",
"7X c #A4C3D6",
"8X c #B6C9D7",
"9X c #D7C7C6",
"0X c #D2CCD0",
"qX c #FFDCD2",
"wX c #ECD6D2",
"eX c #EBE2DC",
"rX c #FBE3DA",
"tX c #FFF2DC",
"yX c #D5D7E3",
"uX c #CFDDEA",
"iX c #EBE7E7",
"pX c #FFECEA",
"aX c #FBF4EA",
"sX c #F6EBF5",
"dX c #ECFAFF",
"fX c #F5F2F4",
"gX c #FDF5F4",
"hX c #FEFCF5",
"jX c #FEF6FC",
"kX c #F5FDFC",
"lX c #FFFFFE",
"zX c #F5F9F8",
"xX c #EAECF4",
"cX c #CFE4F7",
/* pixels */
"lXlXlXlXlXlXlXlXlXlXlXlXlXlXlXlXkXkXkXlXhXhXjXlXlXlXkXkXkXlXjXhXhXlXhXhXlXlXlXlXlXlXhXhXhXhXlXlXlXlXlXlXlXlXlXlXlXlXlXlXlXlXlXlX",
"lXlXlXlXlXlXlXlXlXlXlXlXlXlXlXlXkXkXkXlXjXhXhXhXlXlXkXxXiXiXiXiXiXiXlXlXlXlXlXlXkXlXlXhXhXhXhXkXlXlXlXlXlXlXlXlXlXlXlXlXlXlXlXlX",
"lXlXlXlXlXlXlXlXlXlXlXlXlXlXlXlXlXlXlXkXlXhXgXhXhXlXlXX . 1 1 X X V lXlXlXlXkXlXlXzXlXlXlXhXlXlXlXlXlXlXlXlXlXlXlXlXlXlXlXlXlXlX",
"lXlXlXlXlXlXlXlXlXlXlXlXlXlXlXlXlXlXkXlXlXkXlXhXiX,X;X0 u u 8 8 7 M 9X9XlXlX0X0XyXlXlXlXlXhXlXkXlXlXlXlXlXlXlXlXlXlXlXlXlXlXlXlX",
"lXlXlXlXlXlXlXlXlXlXlXlXlXlXlXlXlXlXlXlXlXlXhXhX X1 & a.7.p.H N H N 3 < jXjXS X E.lXkXlXlXlXlXlXlXlXlXlXlXlXlXlXlXlXlXlXlXlXlXlX",
"lXlXlXlXlXlXlXlXlXlXlXlXlXlXlXlXlXlXlXkXlXlXjX9Xk.F J ;.=.;.n p J &.J x _._.V q L |.lXlXlXkXkXlXlXlXlXlXlXlXlXlXlXlXlXlXlXlXlXlX",
"lXlXlXlXlXlXlXlXlXlXlXlXlXlXlXlXjXlXlXlXlXlXjXy.D d.p.t y / d d [ s.5.a.= @ i x q V lXlXlXlXlXlXlXlXlXlXlXlXlXlXlXlXlXlXlXlXlXlX",
"lXlXlXlXlXlXlXlXlXlXlXlXlXlXlXlXlXlXlXlXkXlX/.w.-.&.*.d d ;.n t _ { { G.5.*.-.J 0 D gXlXlXlXlXlXlXlXlXlXlXlXlXlXlXlXlXlXlXlXlXlX",
"lXlXlXlXlXlXlXlXlXlXlXlXlXlXlXlXhXlXlXlXkXhXh P ;.d b p B i.] r r _ ~ oX&X7.p.*.0 V gXlXlXlXlXlXlXlXlXlXlXlXlXlXlXlXlXlXlXlXlXlX",
"lXlXlXlXlXlXlXlXlXlXlXlXlXlXlXlXlXlXlXlXlXhX0 a n s 5 F N -.=.2.2.,.2.j.j.7.*.u w.9XhXlXlXlXlXlXlXlXlXlXlXlXlXlXlXlXlXlXlXlXlXlX",
"lXlXlXlXlXlXlXlXlXlXlXlXlXlXlXlXhXlXjXlXhXhXh e s b 3 D H H 5.p.5.p.s.s.s.i.H w t.hXjXlXlXlXlXlXlXlXlXlXlXlXlXlXlXlXlXlXlXlXlXlX",
"lXlXlXlXlXlXlXlXlXlXlXlXlXlXlXlXhXlXlXlXiXj z.[ > z h 1 , 5 s n J n n d &.b 4 . t.kXkXlXlXlXhXhXlXlXlXlXlXlXlXlXlXlXlXlXlXlXlXlX",
"lXlXlXlXlXlXlXlXlXlXlXlXlXlXlXlXhXhXlXkXiX+ $X[ e u D 2 - - p b p i H p p c 2 . t.lXlXkXlXlXhXhXlXlXlXlXlXlXlXlXlXlXlXlXlXlXlXlX",
"lXlXlXlXlXlXlXlXlXlXlXlXlXlXlXlXhXhXlXlXfX. v.OX1.5 G 3 p.p.5 , 4 & , , & ,   1 t.lXlXkXkXlXhXhXlXlXlXlXlXlXlXlXlXlXlXlXlXlXlXlX",
"lXlXlXlXlXlXlXlXlXlXlXlXlXlXlXlXhXhXkXkXiX2 J.U.s.e 0 , 9.9.q < 3 0 6 * , 0 2 2 y.jXlXlXkXlXhXlXlXlXlXlXlXlXlXlXlXlXlXlXlXlXlXlX",
"lXlXlXlXlXlXlXlXlXlXlXlXlXlXlXlXhXhXkXlXsX< XXg.l..X3 & OX+Xq < K #X#X* & @Xd.D r.lXlXkXlXlXlXlXlXlXlXlXlXlXlXlXlXlXlXlXlXlXlXlX",
"lXlXlXlXlXlXlXlXlXlXlXlXlXlXlXlXkXkXhXlXsX< XXg.9.a.* * #Xa.w.D =.+X#X-.f d.p.c r.lXhXlXkXlXlXlXlXlXlXlXlXlXlXlXlXlXlXlXlXlXlXlX",
"lXlXlXlXlXlXlXlXlXlXlXlXlXlXlXlXkXkXhXlXsXX XXD.,.e * * @X= rXx.2.%X#XaXd $ 5.a r.lXlXhXlXlXlXlXlXlXlXlXlXlXlXlXlXlXlXlXlXlXlXlX",
"lXlXlXlXlXlXlXlXlXlXlXlXlXlXlXlXlXlXhXlXfX~.1.l.s.*.6 * #X=.qXG.3.%X#XpX} :.5.c r.lXhXlXlXlXlXlXlXlXlXlXlXlXlXlXlXlXlXlXlXlXlXlX",
"lXlXlXlXlXlXlXlXlXlXlXlXlXlXlXlXjXlXlXlXlXjXu p..Xe.c & &X&XrXXX0.U.#XtX .&Xs.v r.lXlXlXlXlXlXlXlXlXlXlXlXlXlXlXlXlXlXlXlXlXlXlX",
"lXlXlXlXlXlXlXlXlXlXlXlXlXlXlXlXlXlXhXhXhXgXh F -.-.x = I.%X>XJ.F.U.l.<XK.P.9.v r.lXlXlXlXlXlXlXlXlXlXlXlXlXlXlXlXlXlXlXlXlXlXlX",
"lXlXlXlXlXlXlXlXlXlXlXlXlXlXlXlXlXhXlXlXhXhXq 3 4 c c % +XY.I.Y.U.H.q.Y.P.*X8.k r.lXlXlXlXlXlXlXlXlXlXlXlXlXlXlXlXlXlXlXlXlXlXlX",
"lXlXlXlXlXlXlXlXlXlXlXlXlXlXlXlXlXlXkXlXaXL 2 K K H 5 k l I.Y.I.U.U.F.Y.Y.I.9.v r.lXlXlXlXhXlXlXlXlXlXlXlXlXlXlXlXlXlXlXlXlXlXlX",
"lXlXlXlXlXlXlXlXlXlXlXlXlXlXlXlXlXlXkXhXaX. , -.1.p - z ; +XI.Y.U.U.U.Y.Y.I.s.z t.lXlXlXjXhXlXkXlXlXlXlXlXlXlXlXlXlXlXlXlXlXlXlX",
"lXlXlXlXlXlXlXlXlXlXlXlXlXlXlXlXlXlXlX0Xq x ).c.;.a - e.% #XOXb.O.( _ %XU.8.e 2 t.lXlXlXhXhXkXlXlXlXlXlXlXlXlXlXlXlXlXlXlXlXlXlX",
"lXlXlXlXlXlXlXlXlXlXlXlXlXlXlXlXlXlXlX0X1 x .Xv.;.b @ a.5 @X%Xb.' ( r %X%X8.4 . t.hXlXlXhXhXlXkXlXlXlXlXlXlXlXlXlXlXlXlXlXlXlXlX",
"lXlXlXlXlXlXlXlXlXlXlXlXlXlXlXlXlXlXlXlXpX3 u z b p , , i = J.U.&XH.%X&X7.- i q t.hXlXlXhXhXlXkXlXlXlXlXlXlXlXlXlXlXlXlXlXlXlXlX",
"lXlXlXlXlXlXlXlXlXlXlXlXlXlXlXlXlXhXhXhXsXG h x i i 2 3 K % J.H.H.J.oXXXe.& F 8 t.hXlXlXhXhXlXlXlXlXlXlXlXlXlXlXlXlXlXlXlXlXlXlX",
"lXlXlXlXlXlXlXlXlXlXlXlXlXlXlXlXhXhXhXhXlXjXV X < 8 G < u.= 2.q.3.0.0.7.@ 2 u.F t.lXlXzXhXhXlXlXlXlXlXlXlXlXlXlXlXlXlXlXlXlXlXlX",
"lXlXlXlXlXlXlXlXlXlXlXlXlXlXlXlXlXhXhXhXlXkXE.V < 7 M < e.% =.2.,.2. .;.q < P x t.lXlXlXlXlXlXlXlXlXlXlXlXlXlXlXlXlXlXlXlXlXlXlX",
"lXlXlXlXlXlXlXlXlXlXlXlXlXlXlXlXlXlXlXzXkXlXlXr.8 F 2 3 u = y r : ~ r t c 3 i 6 y.gXlXlXlXlXlXlXlXlXlXlXlXlXlXlXlXlXlXlXlXlXlXlX",
"lXlXlXlXlXlXlXlXlXlXlXlXlXlXlXlXlXlXlXlXkXkXlX-Xw.6 q H e =.:.` ` O.~ 2.1.n 0 w.-XlXlXlXkXlXhXhXlXlXlXlXlXlXlXlXlXlXlXlXlXlXlXlX",
"lXlXlXlXlXlXlXlXlXlXlXlXlXlXlXlXlXlXlXlXlXkXlXlX X, b i.# H.m.o.| n.^ F.F.8.4 |.hXlXlXkXlXhXlXlXlXlXlXlXlXlXlXlXlXlXlXlXlXlXlXlX",
"lXlXlXlXlXlXlXlXlXlXlXlXlXlXlXlXlXlXlXlXlXlXlXlXeX_.a s.{ g.A.) | f.^ b.f.q.F |.lXlXlXlXhXhXlXlXlXlXlXlXlXlXlXlXlXlXlXlXlXlXlXlX",
"lXlXlXlXlXlXlXlXlXlXlXlXlXlXlXlXhXlXlXlXlXlXlXlXlXeXc i.7.0.n.+.} 6.y 8.4.3.J -XhXlXlXlXlXlXlXlXlXlXlXlXlXlXlXlXlXlXlXlXlXlXlXlX",
"lXlXlXlXlXlXlXlXlXlXlXlXlXlXlXlXhXhXlXlXlXlXlXlXlXgXwX&.] ` ' _ ] &.s ] ` } z -XlXlXlXlXlXlXlXlXlXlXlXlXlXlXlXlXlXlXlXlXlXlXlXlX",
"lXlXlXlXlXlXlXlXlXlXlXlXlXlXlXlXhXhXlXlXlXlXlXlXlXhXpXd : ( ~ _ y n d r ^ ( a ;XhXlXlXlXlXlXlXlXlXlXlXlXlXlXlXlXlXlXlXlXlXlXlXlX",
"lXlXlXlXlXlXlXlXlXlXlXlXlXlXlXlXhXhXlXlXlXlXlXlXhXpX&.:.L.L.3.} 2.G.t 0.n.m.[ =XhXlXlXlXlXlXlXlXlXlXlXlXlXlXlXlXlXlXlXlXlXlXlXlX",
"lXlXlXlXlXlXlXlXlXlXlXlXlXlXlXlXlXlXlXlXhXhXlXlXgXqX/ ..C.N.0.{ O.J.r 3.A.A.l :XhXlXkXkXlXlXlXhXlXlXlXlXlXlXlXlXlXlXlXlXlXlXlXlX",
"lXlXlXlXlXlXlXlXlXlXlXlXlXlXlXlXlXlXlXlXhXhXkXlX:Xd >.$.B.%.~ s.+XJ.7.: #.A._ :XhXlXkXkXlXlXlXhXlXlXlXlXlXlXlXlXlXlXlXlXlXlXlXlX",
"lXlXlXlXlXlXlXlXlXlXlXlXlXlXlXlXlXkXlXlXhXhXkXlX;Xt $.$.B.%._ a..X).e.y @.A.| OXrXhXhXhXlXlXlXhXlXlXlXlXlXlXlXlXlXlXlXlXlXlXlXlX",
"lXlXlXlXlXlXlXlXlXlXlXlXlXlXlXlXlXlXlXhXhXhXkXlX;X] $.Z.Z.4.n K U U P z @.A.m.O.z.hXhXhXlXlXkXlXlXlXlXlXlXlXlXlXlXlXlXlXlXlXlXlX",
"lXlXlXlXlXlXlXlXlXlXlXlXlXlXlXlXlXlXlXhXhXhXhXlX;X] %.B.n.2.u.~.Q.Q E.x 4.V.S. .x.hXhXhXlXlXlXkXlXlXlXlXlXlXlXlXlXlXlXlXlXlXlXlX",
"lXlXlXlXlXlXlXlXlXlXlXlXlXlXlXlXlXlXkXhXhXhXhXjX=X] C.S.0.c rXlX8XE 2XG q.A.C. .c.hXhXlXhXlXkXkXlXlXlXlXlXlXlXlXlXlXlXlXlXlXlXlX",
"lXlXlXlXlXlXlXlXlXlXlXlXlXlXlXlXlXlXkXlXlXjXhX9Xd.} N.h.*.y.fXkX8XT.yXI ' V.C. .c.gXlXlXhXlXkXkXlXlXlXlXlXlXlXlXlXlXlXlXlXlXlXlX",
"lXlXlXlXlXlXlXlXlXlXlXlXlXlXlXlXlXlXkXkXlXlXgX/.k _ A.@.u 5XkXkX6XT.lXP g N.S.| z.hXlXlXhXhXlXlXlXlXlXlXlXlXlXlXlXlXlXlXlXlXlXlX",
"lXlXlXlXlXlXlXlXlXlXlXlXlXlXlXlXjXhXlXlXlXlXhXx.} 4.M.' I 2XfXxX1XR.lXL g A.N.o.k.hXlXlXlXhXjXlXlXlXlXlXlXlXlXlXlXlXlXlXlXlXlXlX",
"lXlXlXlXlXlXlXlXlXlXlXlXlXlXlXlXlXlXhXhXlXlXjXz.X.A.L.g L 2XzXyX'.T.kXL l m.V.o.z.lXkXkXlXlXlXlXlXlXlXlXlXlXlXlXlXlXlXlXlXlXlXlX",
"lXlXlXlXlXlXlXlXlXlXlXlXlXlXlXlXlXlXhXhXlXlXjXx.o.A.g.s Q 1XzXyX'.T.kXU l L.V.o.c.lXlXkXlXlXlXhXlXlXlXlXlXlXlXlXlXlXlXlXlXlXlXlX",
"lXlXlXlXlXlXlXlXlXlXlXlXlXlXlXlXlXlXlXhXhXlXjXx.o.A.0.p Q 6XkXyX'.T.kXU k F.N.| c.jXlXkXlXlXhXhXlXlXlXlXlXlXlXlXlXlXlXlXlXlXlXlX",
"lXlXlXlXlXlXlXlXlXlXlXlXlXlXlXlXlXlXlXhXhXlXjXx.o.n.{ q E 7XuX{.!.'.kXY 6 2.m.+.c.jXlXkXlXlXlXhXlXlXlXlXlXlXlXlXlXlXlXlXlXlXlXlX",
"lXlXlXlXlXlXlXlXlXlXlXlXlXlXlXlXlXlXlXhXhXjXjXz.O.b.t 2 E 7X6XQ.W.8XdXQ 1 s K.O.x.hXhXlXlXlXlXlXlXlXlXlXlXlXlXlXlXlXlXlXlXlXlXlX",
"lXlXlXlXlXlXlXlXlXlXlXlXlXlXlXlXlXlXlXlXhXlXlXx.{ l.p X E 7X7XW.W.8XcXE o 6 <.[ z.hXhXlXlXlXlXlXlXlXlXlXlXlXlXlXlXlXlXlXlXlXlXlX",
"lXlXlXlXlXlXlXlXlXlXlXlXlXlXlXlXhXlXlXlXlXlXlX/.*.5.F o W 7X7X!.!.3X6XW o 7 a z /.hXhXhXlXlXlXlXlXlXlXlXlXlXlXlXlXlXlXlXlXlXlXlX",
"lXlXlXlXlXlXlXlXlXlXlXlXlXlXlXlXhXhXlXlXlXlXlX;Xx.*.q o E 6X3XW.!.4X1XE m X 6 x /.hXhXhXlXlXlXlXlXlXlXlXlXlXlXlXlXlXlXlXlXlXlXlX",
"lXlXlXlXlXlXlXlXlXlXlXlXlXlXlXlXhXhXlXlXlXlXlXhX;XF 7 o W 1X3XW.R.2X4XW o o 7 h ~.hXhXhXlXlXlXlXlXlXlXlXlXlXlXlXlXlXlXlXlXlXlXlX",
"lXlXlXlXlXlXlXlXlXlXlXlXlXlXlXlXhXhXlXlXlXlXlXhXwX(./.o C ^.].R ! ].].C o o ~.(.9XgXhXlXlXlXlXlXlXlXlXlXlXlXlXlXlXlXlXlXlXlXlXlX",
"lXlXlXlXlXlXlXlXlXlXlXlXlXlXlXlXhXlXlXlXlXkXkXlXhXjXjXO O Y ! C M ! Q o o o eXjXgXlXlXkXlXlXlXhXlXlXlXlXlXlXlXlXlXlXlXlXlXlXlXlX",
"lXlXlXlXlXlXlXlXlXlXlXlXlXlXlXlXlXlXlXlXlXkXkXlXhXhXlX(.}.T Z E.~.A A }.}.}.gXjXlXlXlXlXlXlXlXhXlXlXlXlXlXlXlXlXlXlXlXlXlXlXlXlX",
"lXlXlXlXlXlXlXlXlXlXlXlXlXlXlXlXlXlXlXlXlXlXkXlXlXhXlXlXlXV Z 5X5XV Z lXlXlXjXlXlXlXlXlXlXkXlXlXlXlXlXlXlXlXlXlXlXlXlXlXlXlXlXlX",
"lXlXlXlXlXlXlXlXlXlXlXlXlXlXlXlXlXlXlXlXlXlXlXlXlXlXlXlXlX9 O L A 9 9 T lXlXlXlXlXlXlXlXkXlXlXlXlXlXlXlXlXlXlXlXlXlXlXlXlXlXlXlX",
"lXlXlXlXlXlXlXlXlXlXlXlXlXlXlXlXlXlXlXlXlXlXlXlXlXlXlXjXlX(.(.(.(.(.[.}.lXjXkXkXlXlXlXlXlXlXlXlXlXlXlXlXlXlXlXlXlXlXlXlXlXlXlXlX",
"lXlXlXlXlXlXlXlXlXlXlXlXlXlXlXlXlXkXhXhXlXlXlXlXlXlXlXlXlXlXgXfXgXgXgXgXlXlXkXkXlXlXlXhXlXlXlXlXlXlXlXlXlXlXlXlXlXlXlXlXlXlXlXlX",
"lXlXlXlXlXlXlXlXlXlXlXlXlXlXlXlXkXkXhXhXlXlXlXlXlXlXlXlXlXlXlXhXhXhXlXjXlXkXkXkXlXlXlXhXhXhXlXlXlXlXlXlXlXlXlXlXlXlXlXlXlXlXlXlX"
};

