/* XPM */
static char *result[] = {
/* columns rows colors chars-per-pixel */
"64 64 256 2 ",
"   c #5A1606",
".  c #5A110A",
"X  c #6B0A02",
"o  c #730B01",
"O  c #7C0B00",
"+  c #760400",
"@  c #6A1807",
"#  c #741201",
"$  c #7C1401",
"%  c #7B1C01",
"&  c #741A0A",
"*  c #782902",
"=  c #753503",
"-  c #762C15",
";  c #743422",
":  c #5B211F",
">  c #7F4002",
",  c #810B01",
"<  c #8A0A00",
"1  c #940C00",
"2  c #831300",
"3  c #8B1400",
"4  c #851B01",
"5  c #8C1C00",
"6  c #851509",
"7  c #931300",
"8  c #941B01",
"9  c #9B1C01",
"0  c #991703",
"q  c #911A13",
"w  c #A41C00",
"e  c #A51803",
"r  c #8B2201",
"t  c #882704",
"y  c #942300",
"u  c #9C2300",
"i  c #942D00",
"p  c #9C2B01",
"a  c #96260B",
"s  c #993504",
"d  c #862B18",
"f  c #87341A",
"g  c #93330F",
"h  c #A42301",
"j  c #AB2501",
"k  c #A32B01",
"l  c #AB2C01",
"z  c #A9290A",
"x  c #B42D01",
"c  c #B62C05",
"v  c #A33200",
"b  c #AC3301",
"n  c #AC3B01",
"m  c #A53906",
"M  c #B43301",
"N  c #BB3402",
"B  c #B43B02",
"V  c #BA3C01",
"C  c #B9390B",
"Z  c #A82D15",
"A  c #AA3617",
"S  c #B63816",
"D  c #903325",
"F  c #A7352C",
"G  c #C23501",
"H  c #C33C01",
"J  c #C83A06",
"K  c #C63B13",
"L  c #D03900",
"P  c #864805",
"I  c #974717",
"U  c #925103",
"Y  c #A94202",
"T  c #BC4301",
"R  c #B74605",
"E  c #B95604",
"W  c #A84715",
"Q  c #B74817",
"!  c #B15719",
"~  c #B66C14",
"^  c #974624",
"/  c #8F4A30",
"(  c #B75724",
")  c #AB4A2D",
"_  c #B26B31",
"`  c #C34402",
"'  c #CC4503",
"]  c #CB430C",
"[  c #C74A06",
"{  c #D54803",
"}  c #C85403",
"|  c #DA5503",
" . c #D65A05",
".. c #C94715",
"X. c #CB581A",
"o. c #D55917",
"O. c #D34D14",
"+. c #E45C04",
"@. c #E55411",
"#. c #C96804",
"$. c #D96903",
"%. c #C77B05",
"&. c #DB7606",
"*. c #C96A16",
"=. c #D96419",
"-. c #D37A19",
";. c #EB6B01",
":. c #E86707",
">. c #E87703",
",. c #F77705",
"<. c #E66618",
"1. c #EB7618",
"2. c #F77812",
"3. c #F46804",
"4. c #C84D28",
"5. c #C85524",
"6. c #D95927",
"7. c #C8573A",
"8. c #D55936",
"9. c #E25A2C",
"0. c #C96627",
"q. c #D66528",
"w. c #D66836",
"e. c #C87338",
"r. c #D8793C",
"t. c #D06F2D",
"y. c #E16726",
"u. c #E97529",
"i. c #F57B26",
"p. c #E66A30",
"a. c #E57834",
"s. c #F7783A",
"d. c #985A45",
"f. c #A25745",
"g. c #9A6F4F",
"h. c #B0674A",
"j. c #996964",
"k. c #A86E63",
"l. c #D6724D",
"z. c #E56844",
"x. c #E97B40",
"c. c #F27241",
"v. c #B48F2E",
"b. c #B89700",
"n. c #D78E0C",
"m. c #E98704",
"M. c #F88806",
"N. c #E79801",
"B. c #FA9904",
"V. c #E98616",
"C. c #F68415",
"Z. c #E79619",
"A. c #FC9818",
"S. c #D5AC0E",
"D. c #EBA609",
"F. c #F8A904",
"G. c #EAB802",
"H. c #F9B706",
"J. c #FBA819",
"K. c #FDB718",
"L. c #E8B31B",
"P. c #D88539",
"I. c #D99635",
"U. c #D18B2C",
"Y. c #F78827",
"T. c #E69727",
"R. c #FA9927",
"E. c #FB853A",
"W. c #FE963A",
"Q. c #E88F30",
"!. c #D4AC30",
"~. c #E8A727",
"^. c #FCA627",
"/. c #FEB928",
"(. c #FBA836",
"). c #E5BB39",
"_. c #FCBC35",
"`. c #E9AF32",
"'. c #ECC400",
"]. c #F8C705",
"[. c #F3D401",
"{. c #FDDC05",
"}. c #FED40B",
"|. c #FAD908",
" X c #FEC817",
".X c #FED916",
"XX c #EAD107",
"oX c #FEE40C",
"OX c #FDE606",
"+X c #FFE514",
"@X c #FFE71A",
"#X c #FFF11A",
"$X c #FDC82A",
"%X c #FFDC25",
"&X c #FCC936",
"*X c #FDD736",
"=X c #E6C737",
"-X c #FFE62A",
";X c #FFF229",
":X c #FDE339",
">X c #AF8E41",
",X c #D08E4E",
"<X c #E38645",
"1X c #E79957",
"2X c #FD9559",
"3X c #F98E46",
"4X c #D8AF4D",
"5X c #FFAC4A",
"6X c #FBBA47",
"7X c #E7AC57",
"8X c #FCA857",
"9X c #F9B056",
"0X c #EAAF49",
"qX c #C28769",
"wX c #CA9274",
"eX c #E49864",
"rX c #FF9D69",
"tX c #D6A966",
"yX c #F9B66B",
"uX c #F8B877",
"iX c #F0AD6D",
"pX c #FEC544",
"aX c #FFD644",
"sX c #FFC45A",
"dX c #EFCC56",
"fX c #FDE855",
"gX c #DECB65",
"hX c #FCCC7A",
"jX c #F8CF6E",
"kX c #F9EC74",
"lX c #DCC94B",
"zX c #CE9A88",
"xX c #F1B28F",
"cX c #E4B09E",
"vX c #FEC68A",
"bX c #FADA88",
"nX c #FFD699",
"mX c #F2D095",
"MX c #FFE698",
"NX c #FAEC87",
"BX c #F7CBA7",
"VX c #FEDAA7",
"CX c #FBC9B8",
"ZX c #F8DAB3",
"AX c #FFE2A5",
"SX c #FFE2AB",
"DX c #FEEBAF",
"FX c #FEE9B7",
"GX c #FEF8BA",
"HX c #E6E4BE",
"JX c #FEE9C5",
"KX c #FFF5C6",
"LX c #FFE8D8",
"PX c #FFF7D6",
"IX c #FFEAE1",
"UX c None",
/* pixels */
"UXUXUXUXUXUXUXUXUXUXUXUXUXUXUXUXUXUXbXkXb.S.'.}.].].N.).NXkXUXUXUXUXUXUXUXUXUXUXUXUXUXUXUXUXUXUXUXUXUXUXUXUXUXUXUXUXUXUXUXUXUXUX",
"UXUXUXUXUXUXUXUXUXUXUXUXUXUXUXUXUXbXv.=X-X+X.X}.}.}. X*XlXgXgXMXDXKXPXUXUXUXUXUXUXUXUXUXUXUXUXUXUXUXUXUXUXUXUXUXUXUXUXUXUXUXUXUX",
"UXUXUXUXUXUXUXUXUXUXUXUXUXUXUXtXv.!.:X;X#X+XOXoX|.|. X%XfXkXjXdXgXMXbXKXHXUXUXUXUXUXUXUXUXUXUXUXUXUXUXUXUXUXUXUXUXUXUXUXUXUXUXUX",
"UXUXUXUXUXUXUXUXUXUXUXUXUXUXUXv.=X-X;XOXOXOX[.[.|.].H. X$X*X*XaX&X).4XkXGXKXUXUXUXUXUXUXUXUXUXUXUXUXUXUXUXUXUXUXUXUXUXUXUXUXUXUX",
"UXUXUXUXUXUXUXUXUXUXUXUXUXUXP =X:X;XoXOXOX{.'.|.}.G.H.H.H.G.H.H.K./.L.).dXbXGXUXUXUXUXUXUXUXUXUXUXUXUXUXUXUXUXUXUXUXUXUXUXUXUXUX",
"UXUXUXUXUXUXUXUXUXUXUXUXUXP !.aX;X#XOXOX[.[.@X'.G.H.F.F.H.D.H.F.F.F.K.L.`.).gXFXUXUXUXUXUXUXUXUXUXUXUXUXUXUXUXUXUXUXUXUXUXUXUXUX",
"UXUXUXUXUXUXUXUXUXUXUXUXqXP *X-X#XoXOX[.[.oX].G.H.H.F.B.D.K.B.B.B.B.B.B.J.^.0XiXVXUXUXUXUXUXUXUXUXUXUXUXUXUXUXUXUXUXUXUXUXUXUXUX",
"UXUXUXUXUXUXUXUXUXUXUXUX= n.*X;X+X+X[.OX{.}.H.H.H.H.H.F.K.N.F.B.M.M.M.M.M.M.A.W.4XSXUXUXUXUXUXUXUXUXUXUXUXUXUXUXUXUXUXUXUXUXUXUX",
"UXUXUXUXUXUXUXUXUXUXUXg.P _.-X+X.X[.OXoXoX}.G.}..XG.H.K.N.D.N.K.B.B.M.,.M.M.,.A.T.7XAXZXUXUXUXUXUXUXUXUXUXUXUXUXUXUXUXUXUXUXUXUX",
"UXUXUXUXUXUXUXUXUXUXUX/ U $X-XoX[.[.[.oX+X.X}.@XG.-XF.N.$XJ.D.D.m.M.A.A.,.,.,.,.C.T.7XnXUXUXUXUXUXUXUXUXUXUXUXUXUXUXUXUXUXUXUXUX",
"UXUXUXUXUXUXUXUXUXUX/ = ~ &X.X.X[.[.oX#X+X%X%X'.%X XH.&XD./.D.N.B.>.J.B.>.,.,.,.M.V.~.7XMXUXUXUXUXUXUXUXUXUXUXUXUXUXUXUXUXUXUXUX",
"UXUXUXUXUXUXUXUXUXUX/ * ~ $X.X|.'.{.#X+X.X].F.n. XD.K.m.^.pX/.N.N.J.J.m.$.;.,.,.,.>.m.T.0XVXUXUXUXUXUXUXUXUXUXUXUXUXUXUXUXUXUXUX",
"UXUXUXUXUXUXUXUXUXUX) t n.*X%X'.'.[.+X}. XF.B.m./.B.>.>.$.$.m.^.m.R.J.m.M.;. .2.2.,.;.m.T.7XGXUXUXUXUXUXUXUXUXUXUXUXUXUXUXUXUXUX",
"UXUXUXUXUXUXUXUXUXUX) 4 ~ .X XH.G..X.XG.J.Z.n.&.#.&.[  .' }  .>.W.#.J.A.B.>. .:.2.C.,.$.V.Q.uXUXUXUXUXUXUXUXUXUXUXUXUXUXUXUXUXUX",
"UXUXUXUXUXUXUXUXUX; F y n./.H.H.D././.`.T.U.Q.*.E E T ` ` o.:.<.V } #.A.^.A.,.+.3.2.2.3.} 1.Q.uXUXUXUXUXUXUXUXUXUXUXUXUXUXUXUXUX",
"UXUXUXUXUXUXUXUXUX/ F < -./.K.Z.Z.I.~ 7XvXxXxXuX>X= g s l.s =.b B T Y R.>.C.2.2. .;.,.;.:. .i.<XVXUXUXUXUXUXUXUXUXUXUXUXUXUXUXUX",
"UXUXUXUXUXUXUXUXUX^ F 3 } 6X~.U.v.VXmXJXLXIXIXLXFXBXZXcX- * t s s b E.} T >.R.C.&.R.>.2.| H | Q.,XDXUXUXUXUXUXUXUXUXUXUXUXUXUXUX",
"UXUXUXUXUXUXUXUXUX) F 7 R 5XI.NXVXUXUXUXUXUXUXUXUXUXUXUXUXCX@ h.W i p R Y.i.E 5X#.(.>.>.:.' G y.P.jXUXUXUXUXUXUXUXUXUXUXUXUXUXUX",
"UXUXUXUXUXUXUXUX^ A Z w R W.hXMXUXUXUXUXUXUXUXUXUXUXUXUXUXUXUXzX; ^ <XR [ [ W.#.m.^.m.&.2.} x M r.r.nXUXUXUXUXUXUXUXUXUXUXUXUXUX",
"UXUXUXUXUXUXUXUXg Q c 1 b 0.bXGXUXUXUXUXUXUXUXUXUXUXUXUXUXUXUXUXUXd.f m 2X} b n W.V.m.A.R.} l l [ a.1XUXUXUXUXUXUXUXUXUXUXUXUXUX",
"UXUXUXUXUXUXUXUX* Q T 0 l ! vXFXUXUXUXUXUXUXUXUXUXUXUXUXUXUXUXUXUXUXwX* t Y o.=.} &.&.(.$.} B j j 6.u.yXUXUXUXUXUXUXUXUXUXUXUXUX",
"UXUXUXUXUXUXUXUXI a.V 9 0 ( eXFXUXUXUXUXUXUXUXUXUXUXUXUXUXUXUXUXUXUXUXcX,Xe.X.X.n i #.Z.(.Q.u.l h V y.P.UXUXUXUXUXUXUXUXUXUXUXUX",
"UXUXUXUXUXUXUXUX( X.o.l 3 m _ VXUXUXUXUXUXUXUXUXUXUXUXUXUXUXUXUXUXUXUXUXJX_ g Q u u r 5XV.V.3Xs.9 0 X.t.vXUXUXUXUXUXUXUXUXUXUXUX",
"UXUXUXUXUXUXUXf.W 2X..j 1 a P vXFXUXUXUXUXUXUXUXUXUXUXUXUXUXUXUXUXUXUXUXUXJX- ) Z 8 p 3XY 8X&.} 8 8 k 0.l.FXUXUXUXUXUXUXUXUXUXUX",
"UXUXUXUXUXUXUXf.w.` ..x 0 0 W 1XZXUXUXUXUXUXUXUXUXUXUXUXUXUXUXUXUXUXUXUXUXUXLXf.F a 5 3Xk } =.T p 4 5 Q t.vXUXUXUXUXUXUXUXUXUXUX",
"UXUXUXUXUXUXUXUXx.[ ] c 1 < S W nXUXUXUXUXUXUXUXUXUXUXUXUXUXUXUXUXUXUXUXUXUXUXCXd.d 4 Q 5.6.} Y n i 8 p q.eXJXUXUXUXUXUXUXUXUXUX",
"UXUXUXUXUXUXUXUX<XH T K e 1 0 Y 1XVXUXUXUXUXUXUXUXUXUXUXUXUXUXUXUXUXUXUXUXUXUXUXcX_ d , 8...[  .} v 7 0 ..e.BXUXUXUXUXUXUXUXUXUX",
"UXUXUXUXUXUXUXUXR u.[ C z 1 7 W W vXPXUXUXUXUXUXUXUXUXUXUXUXUXUXUXUXUXUXUXUXUXUXLXCX/ d 8 9 T i. .3X4.7 k w.iXJXUXUXUXUXUXUXUXUX",
"UXUXUXUXUXUXUXUXs s.V ] M 9 , 5 ! >XKXUXUXUXUXUXUXUXUXUXUXUXUXUXUXUXUXUXUXUXUXUXUXLXzXd 4 k T i.1. .j 9 7 0.eXSXUXUXUXUXUXUXUXUX",
"UXUXUXUXUXUXUXUX( =.T =...h 3 2 W W xXJXUXUXUXUXUXUXUXUXUXUXUXUXUXUXUXUXUXUXUXUXUXUXLXd.* r n E.1.} l e 3 s ,XMXUXUXUXUXUXUXUXUX",
"UXUXUXUXUXUXUXUX* q.*.8XT C 9 , y ! l.VXUXUXUXUXUXUXUXUXUXUXUXUXUXUXUXUXUXUXUXUXUXUXUXVXI eX2XT 1.$.N h 2 t P.hXUXUXUXUXUXUXUXUX",
"UXUXUXUXUXUXUXUXUX_ W.Y.` V h 7 < m W tXZXUXUXUXUXUXUXUXUXUXUXUXUXUXUXUXUXUXUXUXUXUXUXUXqXt 2 b u.W.H k 8 r ! jXUXUXUXUXUXUXUXUX",
"UXUXUXUXUXUXUXUXUXi T { H ' C w 3 5 Q ( xXUXUXUXUXUXUXUXUXUXUXUXUXUXUXUXUXUXUXUXUXUXUXUXUX/ 4 u o.i.| H y 2 Y iXUXUXUXUXUXUXUXUX",
"UXUXUXUXUXUXUXUXUXa y.<.' G K c 3 O l 4.e.nXUXUXUXUXUXUXUXUXUXUXUXUXUXUXUXUXUXUXUXUXUXUXUXd.% 8 T o.i. .j y i 1XVXUXUXUXUXUXUXUX",
"UXUXUXUXUXUXUXUXUXUXn =.' H J ..l h < S Q ,XVXUXUXUXUXUXUXUXUXUXUXUXUXUXUXUXUXUXUXUXUXUXUXUXf $ h 6.<.[ b u r 1XVXUXUXUXUXUXUXUX",
"UXUXUXUXUXUXUXUXUXUXs ..o.H N ..N j e < X.! iXFXUXUXUXUXUXUXUXUXUXUXUXUXUXUXUXUXUXUXUXUXUXUXqX& p c.y.` T w y r.VXUXUXUXUXUXUXUX",
"UXUXUXUXUXUXUXUXUXUXt ( s.` J J K K c e 0 5.~ 7XAXUXUXUXUXUXUXUXUXUXUXUXUXUXUXUXUXUXUXUXUXUXwX^ 5 2XyX` ` V u <XnXUXUXUXUXUXUXUX",
"UXUXUXUXUXUXUXUXUXUXUX0.p.[ N H J ] G e e l 0.e.uXVXUXUXUXUXUXUXUXUXUXUXUXUXUXUXUXUXUXUXUXUXUXf.g n u.T ' H j P.AXUXUXUXUXUXUXUX",
"UXUXUXUXUXUXUXUXUXUXUX$ ..] N x N O.L G K 7 k 0.t.eXJXUXUXUXUXUXUXUXUXUXUXUXUXUXUXUXUXUXUXUXUXqX* i u.` H H b <XMXUXUXUXUXUXUXUX",
"UXUXUXUXUXUXUXUXUXUXUX4 j s.O.l x c K L G c k k q.w.uXFXUXUXUXUXUXUXUXUXUXUXUXUXUXUXUXUXUXUXUXUX* t u.' H ` n 9XbXUXUXUXUXUXUXUX",
"UXUXUXUXUXUXUXUXUXUXUXl.9.h p.M j j x H H H C w j 6.*.iXAXUXUXUXUXUXUXUXUXUXUXUXUXUXUXUXUXUXUXUX= * w.c l ` E sXbXUXUXUXUXUXUXUX",
"UXUXUXUXUXUXUXUXUXUXUXUXl 9.M 4.x 0 l M T ` K N e x X.0.1XAXUXUXUXUXUXUXUXUXUXUXUXUXUXUXUXUXUXUXBXeXS 0 x E Z.sXUXUXUXUXUXUXUXUX",
"UXUXUXUXUXUXUXUXUXUXUXUX4.9 y M 9.w u y k l K K K e k ..0.<XvXBXUXUXUXUXUXUXUXUXUXUXUXUXUXUXUXUXj.& Z 1 k #.&XfXUXUXUXUXUXUXUXUX",
"UXUXUXUXUXUXUXUXUXUXUXUXd 0 8 Q 6.K 3 4 y k e K K C l l T X.x.iXnXUXUXUXUXUXUXUXUXUXUXUXUXUXUXUXUX@ A 8 R n.&XfXUXUXUXUXUXUXUXUX",
"UXUXUXUXUXUXUXUXUXUXUXUXUX4 2 3 B p.w.i 5 z z w 9 C S w j ..T r.<XhXBXUXUXUXUXUXUXUXUXUXUXUXUXUXZX* % i Z.$XfXlXUXUXUXUXUXUXUXUX",
"UXUXUXUXUXUXUXUXUXUXUXUXUXf y u B R Q A y S 4.1 9 7 8 Z j h [ [ -.I.7XiXUXUXUXUXUXUXUXUXUXUXUXUXBX= t T.L.*X=XUXUXUXUXUXUXUXUXUX",
"UXUXUXUXUXUXUXUXUXUXUXUXUXUX5 8 9 y rXrXu w.4.1 7 4 2 4 a k k b } *.=.W.9X9XbXMXUXUXUXUXUXUXUXVXnXU ~.%X-X*XlXUXUXUXUXUXUXUXUXUX",
"UXUXUXUXUXUXUXUXUXUXUXUXUXUX) u u p v a 3Xu 0 < 2 $ # % 4 5 9 k b T :.:.2.R.`.6X4XbXDXFXKXVXnXv.0X_.$X}..XXX!.UXUXUXUXUXUXUXUXUX",
"UXUXUXUXUXUXUXUXUXUXUXUXUXUXUXS j k n E s.=.N 3 $ X $ $ , 8 8 h j N H | :.1.Y.V.~.0XjXjXhXjX6X_.$X$X XH. XL.UXUXUXUXUXUXUXUXUXUX",
"UXUXUXUXUXUXUXUXUXUXUXUXUXUXUX) C C l T [ u.=.Q % # # o 6 8 3 8 u j c N { | 3.:.C.R.6XsX9X_./.K.K.K.F.F.D.`.UXUXUXUXUXUXUXUXUXUX",
"UXUXUXUXUXUXUXUXUXUXUXUXUXUXUXUX) N J L <.E.V =.s o X $ , 5 a 8 8 k b j T V { 3.:.3.i.V.C.C.B.B.B.B.B.F.~.v.UXUXUXUXUXUXUXUXUXUX",
"UXUXUXUXUXUXUXUXUXUXUXUXUXUXUXUXh.4.9.@.{ L u.8Xs w.4 2 O ) 7.4 u 8 h l l M J L +.@.+.<.;.;.,.,.M.M.m.Z.I.UXUXUXUXUXUXUXUXUXUXUX",
"UXUXUXUXUXUXUXUXUXUXUXUXUXUXUXUXUX/ A G ] H B yXY t.x.r $ xXA r 3 9 9 z p b N J G L ' | :.+.;.;.,.M.A.T.UXUXUXUXUXUXUXUXUXUXUXUX",
"UXUXUXUXUXUXUXUXUXUXUXUXUXUXUXUXUXcX^ A C T Q v 3X=.m 2X8 p y 3 7 9 h A k k h c G L H ' { { | :.A.>.J.I.UXUXUXUXUXUXUXUXUXUXUXUX",
"UXUXUXUXUXUXUXUXUXUXUXUXUXUXUXUXUXUXwXD g h b l B p.p.p B 5.m 8 Z 9 z.z.9 8 c N x N N H L ' { 3.,.M.(.yXUXUXUXUXUXUXUXUXUXUXUXUX",
"UXUXUXUXUXUXUXUXUXUXUXUXUXUXUXUXUXUXUXcX- A Q 8.b ..4 B R X.8.8.7.3 S M y B M O.x x M N V | :.R.M.V.0XUXUXUXUXUXUXUXUXUXUXUXUXUX",
"UXUXUXUXUXUXUXUXUXUXUXUXUXUXUXUXUXUXUXUXcXD g Z y 5 O 5 m 4.8 Z z 4.R l X.n =.O.O.] l k T W./.N.Z.I.UXUXUXUXUXUXUXUXUXUXUXUXUXUX",
"UXUXUXUXUXUXUXUXUXUXUXUXUXUXUXUXUXUXUXUXUXCX& & # X X o O l.O O O y y ..2X} V ] N M k n R #.aXaX!.,XUXUXUXUXUXUXUXUXUXUXUXUXUXUX",
"UXUXUXUXUXUXUXUXUXUXUXUXUXUXUXUXUXUXUXUXUXUXUX: .   @ @ o l.6 5 y k C C k x.5.5.h 0 B E sX&XS.dX>XUXUXUXUXUXUXUXUXUXUXUXUXUXUXUX",
"UXUXUXUXUXUXUXUXUXUXUXUXUXUXUXUXUXUXUXUXUXUXUXUXj.; . . @ X 7.7.7.2 y z.w.2 u 9 a u Y 8Xn.6X!.>XUXUXUXUXUXUXUXUXUXUXUXUXUXUXUXUX",
"UXUXUXUXUXUXUXUXUXUXUXUXUXUXUXUXUXUXUXUXUXUXUXUXUXUXj.: . & o + o 2 q q 5 O 2 , q y s 8XU._ ,XUXUXUXUXUXUXUXUXUXUXUXUXUXUXUXUXUX",
"UXUXUXUXUXUXUXUXUXUXUXUXUXUXUXUXUXUXUXUXUXUXUXUXUXUXUXUX; . @ d f 4 6 + O + O , 6 g ( P.~ UXUXUXUXUXUXUXUXUXUXUXUXUXUXUXUXUXUXUX",
"UXUXUXUXUXUXUXUXUXUXUXUXUXUXUXUXUXUXUXUXUXUXUXUXUXUXUXUXUXUXk.@ - & X + , , + 2 g ( _ UXUXUXUXUXUXUXUXUXUXUXUXUXUXUXUXUXUXUXUXUX",
"UXUXUXUXUXUXUXUXUXUXUXUXUXUXUXUXUXUXUXUXUXUXUXUXUXUXUXUXUXUXUXUXUXk.D q q a Z W g UXUXUXUXUXUXUXUXUXUXUXUXUXUXUXUXUXUXUXUXUXUXUX"
};
