/* XPM */
static char *xpm_[] = {
/* columns rows colors chars-per-pixel */
"64 64 248 2 ",
"   c #001301",
".  c #011A01",
"X  c #0D1606",
"o  c #110E04",
"O  c #290402",
"+  c #330002",
"@  c #3B0206",
"#  c #321514",
"$  c #012301",
"%  c #032A01",
"&  c #073805",
"*  c #0E3B14",
"=  c #193616",
"-  c #14290F",
";  c #273D28",
":  c #20371A",
">  c #4C0001",
",  c #460206",
"<  c #5C0002",
"1  c #580108",
"2  c #560614",
"3  c #45181B",
"4  c #460A13",
"5  c #640002",
"6  c #6C0101",
"7  c #67010C",
"8  c #730002",
"9  c #7A0003",
"0  c #77000C",
"q  c #6A0515",
"w  c #7B0113",
"e  c #750819",
"r  c #70141C",
"t  c #4F1924",
"y  c #671826",
"u  c #781927",
"i  c #58262B",
"p  c #502C31",
"a  c #6D2732",
"s  c #054606",
"d  c #124910",
"f  c #25471C",
"g  c #2E541A",
"h  c #156B10",
"j  c #296D1A",
"k  c #1E5422",
"l  c #274A24",
"z  c #395939",
"x  c #34552E",
"c  c #1E7024",
"v  c #2D6A33",
"b  c #356A3B",
"n  c #2D7735",
"m  c #377739",
"M  c #306F2B",
"N  c #474D39",
"B  c #496D35",
"V  c #4F7536",
"C  c #703D47",
"Z  c #3D6B41",
"A  c #4A5947",
"S  c #525A49",
"D  c #794E55",
"F  c #476647",
"G  c #58614B",
"H  c #4A7749",
"J  c #557053",
"K  c #657751",
"L  c #66786A",
"P  c #84000B",
"I  c #8A000A",
"U  c #830313",
"Y  c #890719",
"T  c #950518",
"R  c #900A17",
"E  c #A6051D",
"W  c #880B23",
"Q  c #9C0C25",
"!  c #960D25",
"~  c #891628",
"^  c #981527",
"/  c #9A1A33",
"(  c #A80A24",
")  c #B50926",
"_  c #A6162B",
"`  c #B5152D",
"'  c #A61B33",
"]  c #B61732",
"[  c #982537",
"{  c #8D2A37",
"}  c #A7283B",
"|  c #B72538",
" . c #A8313B",
".. c #CB1A3A",
"X. c #CB223C",
"o. c #CD2D3F",
"O. c #8C3746",
"+. c #A72843",
"@. c #A83546",
"#. c #B9354C",
"$. c #B93B52",
"%. c #B72B42",
"&. c #C72B44",
"*. c #D82A47",
"=. c #C63449",
"-. c #DC344E",
";. c #D5364E",
":. c #C73D57",
">. c #D93956",
",. c #CF2F53",
"<. c #E72D4C",
"1. c #E4334E",
"2. c #E82E52",
"3. c #E83755",
"4. c #F33657",
"5. c #F12F51",
"6. c #D42E51",
"7. c #984956",
"8. c #8C4852",
"9. c #A84657",
"0. c #B94557",
"q. c #AF4A56",
"w. c #8B5A62",
"e. c #B75567",
"r. c #AF5062",
"t. c #8E6E6F",
"y. c #B76878",
"u. c #C74558",
"i. c #D7445B",
"p. c #E9435E",
"a. c #C54962",
"s. c #D84963",
"d. c #C95366",
"f. c #D7586A",
"g. c #D65A71",
"h. c #E74764",
"j. c #E3576C",
"k. c #E95975",
"l. c #FA5B77",
"z. c #F8506B",
"x. c #DD687B",
"c. c #CC6F79",
"v. c #E7677A",
"b. c #F3637C",
"n. c #E5767D",
"m. c #2A8528",
"M. c #35852A",
"N. c #3A8838",
"B. c #359637",
"V. c #2F972E",
"C. c #469939",
"Z. c #478438",
"A. c #44A234",
"S. c #3EA047",
"D. c #479948",
"F. c #598756",
"G. c #5D945A",
"H. c #4E8849",
"J. c #668859",
"K. c #64824A",
"L. c #4AA748",
"P. c #56A748",
"I. c #4CB64B",
"U. c #57B54C",
"Y. c #59AB56",
"T. c #55B553",
"R. c #5AB453",
"E. c #55BA54",
"W. c #5ABA53",
"Q. c #5BB35B",
"!. c #57B75A",
"~. c #4EB954",
"^. c #65A95C",
"/. c #64B558",
"(. c #788777",
"). c #78977A",
"_. c #6F8D66",
"`. c #5DA860",
"'. c #67A866",
"]. c #67B963",
"[. c #77B170",
"{. c #57C155",
"}. c #62C458",
"|. c #71C66B",
" X c #8BAA78",
".X c #85D677",
"XX c #AA7B82",
"oX c #D8798A",
"OX c #D86D82",
"+X c #EB6C83",
"@X c #FC6982",
"#X c #E77889",
"$X c #FE728B",
"%X c #F57589",
"&X c #FD7A94",
"*X c #879C86",
"=X c #A68487",
"-X c #B29298",
";X c #93A992",
":X c #A8A89A",
">X c #B3B0A8",
",X c #9DAAA0",
"<X c #CC979E",
"1X c #E78795",
"2X c #FB869A",
"3X c #EF9B9B",
"4X c #CD9DA3",
"5X c #D299A2",
"6X c #FA8CA1",
"7X c #FF98B0",
"8X c #C3A6A7",
"9X c #D6B5BC",
"0X c #FFABBA",
"qX c #F0A3A9",
"wX c #92D288",
"eX c #AAC995",
"rX c #94E587",
"tX c #A8C5A8",
"yX c #B9CFB8",
"uX c #B2E8A2",
"iX c #C5D4BD",
"pX c #FFA7C2",
"aX c #BECBC2",
"sX c #DBC7C7",
"dX c #C9D9C6",
"fX c #D9DAD3",
"gX c #DADDCC",
"hX c #E8CBCD",
"jX c #F0D3D4",
"kX c #D9E7DB",
"lX c #D2EAD1",
"zX c #E4F9DD",
"xX c #EBEEDB",
"cX c #F9DFE2",
"vX c #FAE8E9",
"bX c #E9FBE9",
"nX c #F4FEED",
"mX c #F5FAE9",
"MX c #EDFEF3",
"NX c #FFF5F5",
"BX c #F5FDF4",
"VX c #FCFDF6",
"CX c #FEF6FA",
"ZX c #F6FEFB",
"AX c #FEFEFE",
"SX c #F6F7F9",
"DX c #FAEBEF",
"FX c #DEF0E0",
/* pixels */
"AXAXAXAXAXAXAXAXAXAXAXAXAXAXAXAXAXAXAXAXCXAXAXAXAXZXVXAXAXZXAXAXAXCXAXAXAXZXAXCXAXZXAXNXAXCXAXAXAXAXAXAXAXAXZXAXAXAXCXAXAXAXAXAX",
"AXAXAXAXAXAXAXAXAXAXAXAXAXAXAXAXAXAXAXAXCXAXAXZXAXSXVXAXCXAXAXAXAXAXAXAXAXAXAXAXVXAXVXAXAXAXAXAXAXAXAXCXAXAXZXAXAXAXAXAXAXAXAXAX",
"AXAXAXAXAXAXAXAXAXAXAXAXAXAXAXAXAXZXAXAXCXAXAXAXAXAXAXVXcXcXcXCXAXVXvXvXjXvXDXZXAXVXAXCXAXAXSXZXAXAXAXAXAXAXAXAXAXAXAXAXAXAXAXAX",
"AXAXAXAXAXAXAXAXAXAXAXAXAXAXAXAXAXZXZXAXSXAXAXAXVXNX8Xt.7.a a w.t.t.w.8.7.8.a -XNXVXAXAXAXVXAXAXAXAXAXAXAXAXAXAXAXAXAXAXAXAXAXAX",
"AXAXAXAXAXAXAXAXAXAXAXAXAXAXAXAXAXAXAXAXAXAXCXAXNXhX8.7Xa.>.+.W q #X:.i.i.:.v.O.4XAXZXAXAXCXAXCXAXAXAXAXAXAXAXAXAXAXAXAXZXAXAXAX",
"AXAXAXAXAXAXAXAXAXAXAXAXAXAXAXAXAXAXAXAXAXAXAXNX8XC c.:.,.] T +./ Q %.X.*...;.u.u <XAXZXZXAXAXAXAXZXAXAXAXAXAXAXAXAXAXAXAXAXAXAX",
"AXAXAXAXAXAXAXAXAXAXAXAXAXAXAXAXAXAXAXAXAXAXZXhX4 7.[ / / ! 5 0.%X[ 6 ^ _ T ( _ [ r 4XNXVXAXVXZXZXZXAXAXAXAXAXAXAXAXAXZXAXAXAXAX",
"AXAXAXAXAXAXAXAXAXAXAXAXAXAXAXAXAXAXAXAXAXAXVX4Xy ~ ' Y 7 W v.@.@.[ u.U v.f.^ Y %.u.O.i 3 -XfXSXAXAXAXZXAXAXAXAXAXAXAXZXAXAXAXAX",
"AXAXAXAXAXAXAXAXAXAXAXAXAXAXAXAXAXAXAXAXAXNXCXi q.g.$Xs.$.d./ g.+.< u W $.u. .q.} #.i.j.OXy.# jXAXVXVXAXAXSXAXAXAXAXAXZXAXAXAXAX",
"AXAXAXAXAXAXAXAXAXAXAXAXAXAXAXAXZXAXAXAXVXDXi oX%Xl.>.>.#X[ %X,.~ c.d.x.q e.#Xe  .U ..4.>.&XXXO jXAXAXVXAXAXAXAXAXAXAXZXZXAXAXAX",
"AXAXAXAXAXAXAXAXAXAXAXAXAXAXAXAXZXZXAXAXNXD oX+Xh.3.1.| 3X> OX( 6Xq.a.$.q.u 1X~ #.$X*.<.2.i.&X9.p AXVXSXAXVXAXCXAXAXAXZXAXAXAXAX",
"AXAXAXAXAXAXAXAXAXAXAXAXAXAXAXAXAXZXAXNX3 w.%Xh.2.5.1.^ c.1 a.Q e @.$./ 6X2 1X< @.6X6.2.-.-.l.6X, 9XAXAXAXAXAXAXAXAXAXAXAXAXAXAX",
"AXAXAXAXAXAXAXAXAXAXAXAXAXAXAXAXAXAXAXCXO 1Xs.>.4.2.*.! e.#XW / #.$.W $.y O.7.7 q.n.I 3.( ;.i.2X8.-XCXAXZXAXAXAXAXAXAXAXAXAXAXAX",
"AXAXAXAXAXAXAXAXAXAXAXAXAXAXAXAXAXAXAX-XC &X! 3.2.2.X.5 O.6Xe.W / #.#.~ > 1 oX1X{ u | 3.( ;.1.2XO.4XCXAXAXBXAXAXAXAXAXAXAXAXAXAX",
"AXAXAXAXAXAXAXAXAXAXAXAXAXAXAXAXAXAXAXXXOX+X0 &.4.1.Q %XOXe oX@.e 7 k.l.+Xv._ w { > ( >.( -.<.b.u <XNXAXAXZXAXAXAXAXAXAXAXAXAXAX",
"AXAXAXAXAXAXAXAXAXAXAXAXAXAXAXAXAXAXcXt y.#Xv.] 1.*.I #.&XOX{ r.oX[ #.#.=.=.&.=.~ [ U ,.E -.3.;.r 5XNXAXSXAXAXAXAXAXAXAXAXAXAXAX",
"AXAXAXAXAXAXAXZXAXSXAXZXAXAXAXVXAXhX2 @., 1X+XT ] ` >._ %X2X+X#.0 0.x.U u.| -.| 6 x.U T I -.p._ 1 i hXVXAXAXCXAXAXAXAXAXAXAXAXVX",
"AXAXAXAXAXAXAXAXAXAXVXVXAXVXAXCXjX{ :./ q e.%Xk.T Q i.Q %X2X@X@Xk.#. .~ | 9 =.R 0.} e w ] -.o.I W y + 8XCXAXAXAXAXAXZXAXAXAXAXAX",
"AXAXAXAXAXAXAXAXAXAXAXAXAXAXAXvX7 s.6.) ! 7 #X#X+X5 #.^ k.@X@X$X@X@X3.3.o._ < { v.~ 0 w >.3.` R Q #.~ + jXSXAXAXAXAXZXAXAXZXAXAX",
"AXAXAXAXAXAXAXAXAXCXCXAXCXAXCXC x.;.5.) 9 W Y O.d.1Xd.0 _ h.@Xl.l.2.3.3.3.^ 9.oX$.w w v.h.] I T ) &.i.@.4 8XCXCXAXAXAXZXAXAXAXAX",
"AXAXAXAXAXAXAXAXAXAXAXAXAXAXAXp qXi.<.) Q ! / u.~ 5 0.2X^ ' i.1.2.3.-.>.( +.g.~ 5 i.&Xu. .5 E ) ) 3.>.:.a.2 cXAXAXAXAXAXZXAXAXAX",
"AXAXAXAXAXAXAXAXAXAXSXAXAXAXSXp 0Xj.*.) T ! 6 u.v.f.~ W u.' Q >.3.&._ R j.:.+.x.%Xb.| U 5 Y ( E X.z.&Xf.+.O.t.AXAXAXAXAXAXAXAXAX",
"AXAXAXAXAXAXAXAXAXAXZXAXSXZXBXp c.n.-.-.5 ^ Y | k.b.z.,.Q 0 ^ W ^ 8 u.l.$X%Xf.d.U 8 T T P _ ) E h.2Xu.e XXw.o NXAXAXAXAXAXCXAXAX",
"AXAXAXAXAXAXAXAXAXZXVXVXZXVXBXt.a 0Xk.i.$.0 Y 0 | l.b.h.;.' w q { n.$X=.| _ 9 9 Q ' R T 9 Q ( -.$Xg.u 5XCXCXAXAXAXAXAXAXAXAXAXAX",
"AXAXAXAXAXCXAXAXAXAXAXZXAXVXAXAXO 7.pXk.>.,.6 < U | p.3.i.' Y u.f.~ I I I E X.*.*._ ~ > u 6 _ b.&X#.2 DXAXAXAXAXAXAXAXAXAXAXAXZX",
"AXAXAXAXAXAXAXAXAXAXAXZXAXAXAXNXsXi y.pXk.i.=. .5 R E E T 9 l.=.6 P _ ) 1.1.5.5.` ^ 5 < < ^ u.&X$.1 DXAXZXZXZXSXAXAXAXAXAXAXAXZX",
"AXZXAXAXAXAXAXAXAXAXAXAXAXCXCXAXCX-Xt e.7X&Xs.i.o.R 9 I Y } R T ( o.*.<.4.4.<.` / 5 > w | i.s.@.2 w.AXAXAXZXZXAXAXAXAXAXZXAXZXZX",
"ZXVXAXAXAXAXAXAXCXAXAXAXAXAXAXAXAXAX9X@ 9.OX7X6Xj.u.i.9 5 ! ^ &.p.1.5.5.5.o.) Q < > ~ 0.:.^ e > p CXAXAXAXZXSXAXAXAXAXAXAXAXAXAX",
"AXAXAXAXAXAXAXAXAXZXZXZXAXVXAXVXZXAXAX8X@ a 9.d.%Xb.h.l.i.T P I ] ....*...( ~ 6 1 u e w 5 > 3 jXAXAXAXAXAXAXAXAXAXAXAXVXAXAXAXAX",
"AXAXAXAXAXAXAXAXAX,XL yXbXBXnXVXZXSXSXVXDX=X@ 1 { u.s.>.h.>.u.^ 8 ( ( ( ( 0 < 7 > 0 R W u + sXAXAXAXAXCXAXAXSXAXAXAXAXAXAXAXAXAX",
"AXAXAXAXAXAXAXVXMXF J tX_.l J.& ).lXZXAXAXAXCXjXy 1 q 0 8 9 6 P } < ~ q 1 5 5 U E ( ) ] r 3 CXSXVXVXAXAXAXAXAXAXAXAXZXAXAXAXAXAX",
"AXAXAXAXAXAXAXVXBXzXZ H '.[.[.[.G.z z nXBXVXAXt.a 7 ~ ! _ Q Q ^ ^ Y ~ > > ~ Q ` <.o.*.' 2 9XAXAXAXAXAXAXAXNXAXAXAXAXAXZXAXAXAXAX",
"AXAXAXAXAXAXAXVXVXnX(.b '.].P./.].wXB   l dXVX3 y / %.,.o.i.p.p.X._ ^ P E ] 1.5.5.1.' r w.VXAXAXAXZXAXZXSXAXVXAXAXAXAXZXZXAXAXAX",
"AXAXZXAXCXAXAXAXVXAXAX  H.].C.A.!.B.wXF.'.F.xX8X5X1 7 / _ _ ;.z.b.1.i.( o.5.5.5.1.] q + sXAXCXAXNXAXZXVXAXAXAXCXAXAXAXAXZXAXAXAX",
"AXAXZXAXAXAXAXAXAXVXZXyXd !.}.h P.R.Y..X].^.- xXmXNXCXC 4 u ~ T p.z.p.<.<.4.<.3.| 7 @ NXAXAXSXCXAXAXAXAXCXAXAXAXAXAXAXAXAXAXAXAX",
"AXAXAXAXAXAXAXVXAXAXAXF s Q.}.|.C.U.m.|.Q.].wX  A AXCXCXCX X@ 6 ^ u.b.z.4.-.X._ q , sXAXAXCXAXAXCXCXAXAXAXCXAXCXAXAXAXAXAXAXAXAX",
"AXAXAXAXAXAXAXAXVXAXVX. d L.~.P.rX/.U.W.I.I..XC.& bXAXCXAXN p O + u ~ ( ( ! u @ O DXAXVXVXVXNXAXAXZXAXZXAXAXAXAXAXAXAXZXAXAXAXAX",
"AXAXAXAXAXAXZXAXAXAXAXdXZ D.!.~./.|.U.m.{.V.{.P.G.= AXCXAX$ B : sXt 2 e q > 3 =XCXCXnXnXgX*X;X;X;XMXbXMXBXZXAXAXAXAXAXAXAXAXAXAX",
"AXAXAXAXAXAXAXZXAXZXAXMXd `.!.I.A.B.U.A.U.j A.R.^.k dXAXdXA x :XAXvXhXp # gXxXCX>XA iX& V ^.[.& '.G.d * ;XZXBXZXAXVXAXAXAXAXAXAX",
"CXAXAXAXAXAXZXAXAXAXAXBXx n !.!.!.M.L.M.C.j C.W.!.c *XVX(.>Xx yXVXAXCXVXBXMXFX*Xx $ V ]..XR.^./.Y.].'.'.[.$ ;XfXAXAXAXAXAXAXAXAX",
"AXAXAXAXAXVXAXAXAXAXAXAX).b D./.E.!.L.C.& d C.W.Q.M *XBX)._.N lXVXAXAXAXVXtXv H.Z H.|.].U.U.U.U.{.m.Q.].H.z >XfXAXAXAXAXAXAXAXAX",
"CXAXAXAXAXAXVXAXAXAXCXAXBX* M D.T.T.!.!.Y.N.C.D.^.v *XZX XV G AXAXVXVX(.iXx '.D.S.].Q.!././.}.}.I.!.Y.V = BXZXAXAXAXAXAXAXAXAXAX",
"AXAXAXAXAXVXAXAXCXAXAXAXZXdXf M Z.U.E.B.B.N.M.s V M *XmXJ.K N VXAXZXbXF % ^.C.P.~.h !.!.C.P..X|.!.L.m H bXZXCXAXAXAXCXAXAXAXAXVX",
"AXAXZXZXAXAXVXAXAXAXNXAXAXVXnXf d D.T.~.~.!.Y.j Z.   XmXV K G VXZXMX$ G.^.].& /.R.!.~.~.A.rXW.].Q.m & zXZXAXCXAXAXAXAXAXVXAXZXZX",
"AXZXZXAXZXVXAXAXAXAXAXAXCXAXdX_.f m m S.B.S.S.N.g x K mXV K.S AXZXtXk Q.R.P.^.P.M M Z.|.}.{.~.L.c k   aXAXCXAXAXAXAXAXAXAXAXAXZX",
"VXAXAXZXAXAXAXAXAXVXZXAXAXCXCXnXyX* $ v N.n n Z % . G g V K.G ZXZXZ m /.R.M.P.Z.d .X/.W.U.{.!.Q.v * kXZXCXCXAXCXAXAXVXAXAXAXAXAX",
"VXAXAXAXAXVXAXAXAXZXZXZXSXAXAXZXBXBXbXJ A A J F iXSX:X XB K.S AXMXH N.^.^.V g H  X/.W.I.I.{.I.M.m J BXZXAXAXAXAXAXVXVXVXAXAXAXAX",
"VXAXAXAXAXAXAXAXAXZXAXZXAXAXZXAXAXAXAXAXAXAXSXZXAXAXmX- V K G VXBXL m M g % V j s A.{.V.A.W.m.M l bXZXAXAXAXAXAXAXZXVXAXAXAXAXAX",
"AXAXAXAXAXAXAXAXAXAXAXAXAXAXAXAXAXAXVXAXAXAXAXAXCXAXVXzXB  XN VXmXL & k N./.T.E.{.I.~.~.~.N.v l BXZXAXAXAXAXAXAXAXAXAXAXAXAXAXAX",
"AXAXAXAXAXAXAXAXAXAXAXAXAXAXAXAXAXAXVXVXAXAXAXAXAXCXVXmXM eXK VXgX- f * s Q.E.{.I.{.L.B.n s F kXAXAXAXAXAXAXAXAXAXAXAXAXAXAXAXAX",
"AXAXAXAXAXAXAXAXAXAXAXAXAXAXAXAXAXAXVXAXAXAXAXAXAXAXVXnX_.:XL dXo - $ Z Z n c c m.m.v $   kXVXAXAXAXAXAXAXAXAXAXAXAXAXAXAXAXAXAX",
"AXAXAXAXAXAXAXAXAXAXAXAXAXAXAXAXAXAXAXAXAXAXAXAXBXAXZXBX X_.B . S VX,XJ : d n Z n v f ; A vXAXCXAXAXAXAXAXAXAXAXAXAXAXAXAXAXAXAX",
"AXAXAXAXAXAXAXAXAXAXAXAXAXAXAXAXAXAXAXAXAXAXAXVXVXVXAXZX(.tXF.. VXAXBXMXMXkX;     = iXbXAXAXAXAXAXAXAXAXAXAXAXAXAXAXAXAXAXAXAXAX",
"AXAXAXAXAXAXAXAXAXAXAXAXAXAXAXAXAXAXAXAXAXAXAXAXVXBXZXZXZX- '.& kXZXZXAXZXAXAXAXAXAXmXAXVXAXAXAXAXAXAXAXAXAXAXAXAXAXAXAXAXAXAXAX",
"AXAXAXAXAXAXAXAXAXAXAXAXAXAXAXAXAXAXAXAXAXAXAXVXVXVXSXAXZX- J H A NXAXAXAXAXZXAXZXNXAXVXVXVXAXAXAXAXAXAXAXAXAXAXAXAXAXAXAXAXAXAX",
"AXAXAXAXAXAXAXAXAXAXAXAXAXAXAXAXAXAXAXAXVXAXAXAXAXAXAXAXAXBXd _.= iXVXAXAXAXZXZXAXAXCXVXVXAXAXAXAXAXAXAXAXAXAXAXAXAXAXAXAXAXAXAX",
"AXAXAXAXAXAXAXAXAXAXAXAXAXAXAXAXAXAXAXAXVXAXAXAXAXAXAXCXAXAX_.G.K.f nXVXVXVXZXAXAXAXCXCXAXAXZXZXAXAXAXAXAXAXAXAXAXAXAXAXAXAXAXAX",
"AXAXAXAXAXAXAXAXAXAXAXAXAXAXAXAXAXAXAXAXVXVXAXAXAXAXAXAXAXAXtX% G.d . xXVXVXZXVXAXAXCXAXAXAXAXZXAXAXAXAXAXAXAXAXAXAXAXAXAXAXAXAX",
"AXAXAXAXAXAXAXAXAXAXAXAXAXAXAXAXAXAXAXAXVXVXAXAXCXAXNXAXCXAXBX,X& J.= l nXAXAXAXAXAXAXAXAXAXAXZXAXAXAXAXAXAXAXAXAXAXAXAXAXAXAXAX",
"AXAXAXAXAXAXAXAXAXAXAXAXAXAXAXAXAXAXAXAXVXVXAXAXCXAXAXAXAXAXVXSXyXf F x   SXAXAXAXAXAXAXCXAXAXAXAXAXAXAXAXAXAXAXAXAXAXAXAXAXAXAX",
"AXAXAXAXAXAXAXAXAXAXAXAXAXAXAXAXAXAXAXAXAXAXAXAXAXAXAXNXAXAXAXAXCX,X= ; - AXCXCXAXAXAXAXAXAXAXAXAXAXAXAXAXAXAXAXAXAXAXAXAXAXAXAX",
"AXAXAXAXAXAXAXAXAXAXAXAXAXAXAXAXAXAXAXAXAXAXAXAXAXAXAXSXZXZXAXAXCXAXkX(.kXAXAXAXAXAXVXZXAXAXAXAXAXAXAXAXAXAXAXAXAXAXAXAXAXAXAXAX",
"AXAXAXAXAXAXAXAXAXAXAXAXAXAXAXAXVXAXAXAXAXAXAXAXAXAXAXZXMXZXAXAXAXAXAXAXAXAXAXAXAXAXAXAXZXAXAXAXAXAXAXAXAXAXAXAXAXAXAXAXAXAXAXAX",
"AXAXAXAXAXAXAXAXAXAXAXAXAXAXAXAXAXAXAXAXAXAXAXAXAXAXAXZXZXBXCXAXVXVXAXAXAXZXAXZXAXAXAXAXAXAXAXAXAXAXAXAXAXAXAXAXAXAXAXAXAXAXAXAX"
};
